<?xml version="1.0" standalone="no"?>
<!DOCTYPE svg PUBLIC "-//W3C//DTD SVG 1.1//EN" "http://www.w3.org/Graphics/SVG/1.1/DTD/svg11.dtd" >
<svg xmlns="http://www.w3.org/2000/svg" xmlns:xlink="http://www.w3.org/1999/xlink" version="1.1">
<metadata></metadata>
<defs>
<font id="montserratitalic" horiz-adv-x="1177" >
<font-face units-per-em="2048" ascent="1638" descent="-410" />
<missing-glyph horiz-adv-x="536" />
<glyph horiz-adv-x="0" />
<glyph unicode="&#xd;" horiz-adv-x="536" />
<glyph horiz-adv-x="0" />
<glyph horiz-adv-x="0" />
<glyph unicode=" "  horiz-adv-x="536" />
<glyph unicode="&#x09;" horiz-adv-x="536" />
<glyph unicode="&#xa0;" horiz-adv-x="536" />
<glyph unicode="!" horiz-adv-x="532" d="M70 90q0 47 31.5 79t78.5 32q45 0 75 -29t30 -70q0 -47 -32 -79.5t-79 -32.5q-43 0 -73.5 29.5t-30.5 70.5zM188 430l170 1004h172l-229 -1004h-113z" />
<glyph unicode="&#x22;" horiz-adv-x="763" d="M225 893l97 541h129l-117 -541h-109zM575 893l97 541h129l-117 -541h-109z" />
<glyph unicode="#" horiz-adv-x="1425" d="M33 389l22 113h301l138 430h-287l20 112h303l125 390h115l-125 -390h416l125 390h117l-125 -390h288l-22 -112h-303l-137 -430h290l-22 -113h-305l-125 -389h-115l125 389h-418l-125 -389h-114l124 389h-286zM471 502h416l139 430h-418z" />
<glyph unicode="$" horiz-adv-x="1259" d="M25 170l73 119q66 -70 174.5 -116t231.5 -54l106 540q-117 37 -194.5 75t-128.5 105.5t-51 174.5q0 190 146 306t386 126l47 233h100l-47 -235q111 -6 211.5 -38t173.5 -83l-63 -123q-147 105 -348 115l-109 -547q127 -37 207 -74t135 -103.5t55 -170.5 q0 -197 -151.5 -310.5t-400.5 -121.5l-48 -234h-100l47 236q-141 10 -264 59t-188 121zM383 1028q0 -90 65.5 -141t190.5 -90l102 518q-164 -12 -261 -89t-97 -198zM604 119q172 8 274.5 81.5t102.5 198.5q0 93 -70.5 143t-203.5 91z" />
<glyph unicode="%" horiz-adv-x="1697" d="M182 973q0 125 47 232.5t134.5 172t201.5 64.5q129 0 204 -82t75 -223q0 -125 -47 -232.5t-134.5 -172t-203.5 -64.5q-127 0 -202 81.5t-75 223.5zM190 0l1260 1434h127l-1258 -1434h-129zM285 981q0 -106 48 -164.5t134 -58.5q84 0 146.5 55t94 140t31.5 175 q0 106 -48 165t-134 59q-84 0 -146.5 -55.5t-94 -140.5t-31.5 -175zM926 295q0 125 47 232.5t135 172t203 64.5q127 0 201.5 -82t74.5 -223q0 -125 -46 -232.5t-134 -172t-203 -64.5q-129 0 -203.5 82t-74.5 223zM1028 303q0 -106 49 -164.5t135 -58.5q84 0 146.5 55 t94.5 140t32 176q0 106 -48 164.5t-134 58.5t-148.5 -55.5t-94.5 -140.5t-32 -175z" />
<glyph unicode="&#x26;" horiz-adv-x="1370" d="M59 315q0 143 105.5 256t343.5 230q-57 80 -87 148.5t-30 137.5q0 164 110.5 260.5t286.5 96.5q141 0 227.5 -68.5t86.5 -183.5q0 -129 -92 -222t-310 -198l314 -399q90 115 153 278l115 -37q-73 -193 -190 -340l157 -202l-98 -95l-156 199q-209 -188 -497 -188 q-201 0 -320 89t-119 238zM205 338q0 -104 80 -166.5t223 -62.5q238 -1 414 161l-344 443q-207 -100 -290 -184.5t-83 -190.5zM526 1104q0 -55 26 -113.5t81 -130.5q135 63 207.5 112.5t103.5 97.5t31 112q0 68 -50.5 110.5t-140.5 42.5q-116 0 -187 -63.5t-71 -167.5z" />
<glyph unicode="'" horiz-adv-x="413" d="M225 893l97 541h129l-117 -541h-109z" />
<glyph unicode="(" horiz-adv-x="673" d="M176 145q0 375 125 746t336 629h149q-217 -272 -344 -645t-127 -738q0 -268 86 -534h-131q-43 114 -68.5 258.5t-25.5 283.5z" />
<glyph unicode=")" horiz-adv-x="673" d="M-4 -397q217 272 344 645t127 737q0 268 -86 535h131q43 -115 68.5 -259.5t25.5 -283.5q0 -375 -125 -745.5t-336 -628.5h-149z" />
<glyph unicode="*" horiz-adv-x="790" d="M137 1004l289 147l-225 141l57 88l229 -153l56 293h96l-61 -293l286 151l37 -88l-285 -143l222 -141l-58 -86l-231 153l-57 -295h-97l60 289l-279 -147z" />
<glyph unicode="+" d="M166 655l24 121h381l76 375h129l-76 -375h383l-24 -121h-383l-74 -372h-129l74 372h-381z" />
<glyph unicode="," horiz-adv-x="434" d="M-53 -299l131 301q-27 12 -42.5 38t-15.5 56q0 49 34 83t81 34q45 0 75 -30.5t30 -76.5q0 -27 -9.5 -49t-29.5 -59l-156 -297h-98z" />
<glyph unicode="-" horiz-adv-x="782" d="M115 492l24 126h537l-25 -126h-536z" />
<glyph unicode="." horiz-adv-x="434" d="M20 96q0 49 34 83t81 34q45 0 75 -30.5t30 -76.5q0 -49 -34 -82.5t-79 -33.5t-76 30.5t-31 75.5z" />
<glyph unicode="/" horiz-adv-x="686" d="M-203 -205l1057 1929h141l-1056 -1929h-142z" />
<glyph unicode="0" horiz-adv-x="1355" d="M121 506q0 246 88 462t252 347t377 131q219 0 343 -137.5t124 -380.5q0 -246 -88.5 -462t-252 -347t-376.5 -131q-219 0 -343 137t-124 381zM270 508q0 -186 87 -285.5t243 -99.5q168 0 295 119.5t193.5 306t66.5 377.5q0 186 -87 285.5t-243 99.5q-168 0 -295 -120 t-193.5 -306.5t-66.5 -376.5z" />
<glyph unicode="1" horiz-adv-x="739" d="M170 1303l27 131h487l-287 -1434h-149l260 1303h-338z" />
<glyph unicode="2" horiz-adv-x="1163" d="M-29 0l23 104l717 582q152 121 209 210t57 187q0 109 -77 170.5t-232 61.5q-113 0 -216.5 -43t-179.5 -121l-102 88q88 96 225 151.5t293 55.5q211 0 325.5 -93t114.5 -251q0 -127 -69.5 -244t-245.5 -258l-586 -469h779l-27 -131h-1008z" />
<glyph unicode="3" horiz-adv-x="1155" d="M-45 174l82 115q59 -76 168.5 -121t249.5 -45q201 0 314.5 88t113.5 238q0 248 -346 247h-93l23 109l491 498h-727l27 131h920l-21 -105l-506 -512q184 -14 283.5 -108.5t99.5 -251.5q0 -137 -73.5 -244t-206.5 -166t-308 -59q-164 0 -292.5 50t-198.5 136z" />
<glyph unicode="4" horiz-adv-x="1353" d="M51 377l21 106l938 951h174l-910 -926h615l67 332h142l-66 -332h287l-25 -131h-288l-76 -377h-148l76 377h-807z" />
<glyph unicode="5" horiz-adv-x="1159" d="M-16 174l84 115q57 -76 166.5 -121t250.5 -45q203 0 315.5 88t112.5 244q0 260 -399 260h-332l217 719h783l-27 -131h-649l-141 -457h174q264 0 394 -99.5t130 -275.5q0 -145 -72.5 -255t-206 -169t-309.5 -59q-164 0 -293 50t-198 136z" />
<glyph unicode="6" horiz-adv-x="1247" d="M123 555q0 219 82 423t259 336t447 132q223 0 344 -80l-69 -119q-106 70 -283 70q-201 0 -337 -95.5t-204.5 -246t-80.5 -322.5q70 104 181 154.5t245 50.5q129 0 234.5 -48t165.5 -139t60 -216q0 -141 -66.5 -247t-184 -163t-267.5 -57q-240 0 -383 146.5t-143 420.5z M291 408q0 -76 41 -143.5t122 -109.5t193 -42q168 0 269.5 89t101.5 242q0 137 -94.5 213t-247.5 76q-113 0 -201 -43t-136 -117.5t-48 -164.5z" />
<glyph unicode="7" horiz-adv-x="1206" d="M166 1034l78 400h1054l-20 -105l-860 -1329h-168l844 1303h-729l-54 -269h-145z" />
<glyph unicode="8" horiz-adv-x="1306" d="M70 367q0 154 92 257t262 144q-82 43 -125 112.5t-43 159.5q0 125 65.5 216.5t184.5 140.5t276 49q219 0 351.5 -94.5t132.5 -253.5q0 -133 -77 -227.5t-220 -135.5q102 -47 156.5 -125t54.5 -184q0 -133 -72 -232.5t-204 -152.5t-306 -53q-246 0 -387 101t-141 278z M219 377q0 -123 101.5 -193.5t281.5 -70.5q199 0 313.5 84t114.5 227q0 123 -102.5 193.5t-282.5 70.5q-197 0 -311.5 -84t-114.5 -227zM406 1042q0 -111 88 -174t247 -63q172 0 273.5 74.5t101.5 199.5q0 113 -92 177.5t-248 64.5q-170 0 -270 -75t-100 -204z" />
<glyph unicode="9" horiz-adv-x="1247" d="M63 68l70 118q106 -70 283 -69q199 0 335 95t205.5 246.5t81.5 323.5q-70 -106 -181.5 -156.5t-244.5 -50.5q-129 0 -234.5 48.5t-165.5 139.5t-60 216q0 141 66.5 246.5t184 163t267.5 57.5q239 0 382.5 -146.5t143.5 -420.5q0 -219 -82 -423t-259 -336t-449 -132 q-221 0 -343 80zM301 989q0 -137 94 -213t248 -76q113 0 201 43t136 118t48 165q0 76 -41 143.5t-122 109.5t-193 42q-168 0 -269.5 -89t-101.5 -243z" />
<glyph unicode=":" horiz-adv-x="434" d="M20 96q0 49 34 83t81 34q45 0 75 -30.5t30 -76.5q0 -49 -34 -82.5t-79 -33.5t-76 30.5t-31 75.5zM194 968q0 49 34 83t81 34q45 0 75 -30.5t30 -76.5q0 -49 -34 -82.5t-79 -33.5t-76 30.5t-31 75.5z" />
<glyph unicode=";" horiz-adv-x="434" d="M-53 -299l131 301q-27 12 -42.5 38t-15.5 56q0 49 34 83t81 34q45 0 75 -30.5t30 -76.5q0 -27 -9.5 -49t-29.5 -59l-156 -297h-98zM194 968q0 49 34 83t81 34q45 0 75 -30.5t30 -76.5q0 -49 -34 -82.5t-79 -33.5t-76 30.5t-31 75.5z" />
<glyph unicode="&#x3c;" d="M164 649l26 135l963 359l-29 -137l-811 -297l697 -295l-25 -121z" />
<glyph unicode="=" d="M121 420l24 121h891l-24 -121h-891zM215 891l25 123h890l-26 -123h-889z" />
<glyph unicode="&#x3e;" d="M96 293l29 135l809 295l-692 297l24 123l817 -359l-26 -135z" />
<glyph unicode="?" horiz-adv-x="1161" d="M162 1239q90 100 224 153.5t308 53.5q197 0 309.5 -84t112.5 -234q0 -98 -34.5 -169.5t-86 -118.5t-137.5 -111q-106 -76 -165.5 -139.5t-80.5 -159.5h-151q16 84 57 148.5t91 108.5t130 104q78 55 122 94t74 94t30 127q0 100 -75 155.5t-216 55.5q-135 0 -236.5 -41 t-179.5 -125zM362 90q0 47 32 79t79 32q43 0 72.5 -29t29.5 -70q0 -47 -31.5 -79.5t-78.5 -32.5q-43 0 -73 29.5t-30 70.5z" />
<glyph unicode="@" horiz-adv-x="2115" d="M86 352q0 299 138 550t390 397.5t582 146.5q262 0 448.5 -92t283.5 -260t97 -392q0 -186 -59 -350t-161.5 -263t-223.5 -99q-94 0 -150.5 47t-58.5 129q-76 -84 -180.5 -130t-233.5 -46q-131 0 -232 53t-157.5 151.5t-56.5 231.5q0 172 75 314.5t208 224.5t301 82 q147 0 247.5 -59.5t147.5 -172.5l45 223h133l-156 -778q-6 -27 -6 -51q0 -102 107 -103q84 0 154.5 86.5t111.5 224.5t41 283q0 195 -84 339.5t-249 223t-404 78.5q-291 0 -515.5 -131t-346 -356t-121.5 -496q0 -199 82 -348t242.5 -232t385.5 -83q109 0 212.5 22.5 t185.5 65.5l22 -102q-88 -43 -201.5 -67t-230.5 -24q-250 0 -434 96.5t-281.5 268.5t-97.5 397zM647 434q0 -156 90 -240.5t250 -84.5q131 0 235.5 64.5t163 178t58.5 252.5q0 154 -91 239t-255 85q-129 0 -231.5 -63.5t-161 -176.5t-58.5 -254z" />
<glyph unicode="A" horiz-adv-x="1468" d="M-102 0l942 1434h149l369 -1434h-152l-96 383h-801l-248 -383h-163zM387 506h694l-194 774z" />
<glyph unicode="B" horiz-adv-x="1544" d="M127 0l287 1434h612q209 0 324.5 -78t115.5 -228q0 -145 -79.5 -246.5t-210.5 -142.5q110 -30 169.5 -104t59.5 -191q0 -215 -163 -329.5t-449 -114.5h-666zM303 125h502q217 0 333.5 82t116.5 235q0 119 -82.5 170.5t-250.5 51.5h-512zM434 788h457q190 0 305 81 t115 233q0 104 -81 155.5t-233 51.5h-458z" />
<glyph unicode="C" horiz-adv-x="1472" d="M131 584q0 238 107.5 434t306 312t459.5 116q172 0 305 -54.5t204 -154.5l-106 -94q-137 168 -416 168q-211 0 -372.5 -97.5t-249.5 -261.5t-88 -360q0 -215 138 -342t394 -127q281 0 455 170l88 -100q-94 -98 -239.5 -151.5t-315.5 -53.5q-209 0 -360.5 74.5t-230.5 209 t-79 312.5z" />
<glyph unicode="D" horiz-adv-x="1691" d="M127 0l287 1434h544q213 0 366 -72t231.5 -204t78.5 -308q0 -250 -110.5 -442.5t-312 -300t-468.5 -107.5h-616zM303 131h445q223 0 390 91t256 253t89 369q0 213 -137.5 336t-403.5 123h-405z" />
<glyph unicode="E" horiz-adv-x="1370" d="M127 0l287 1434h983l-27 -131h-833l-103 -510h744l-25 -129h-743l-107 -533h862l-26 -131h-1012z" />
<glyph unicode="F" horiz-adv-x="1296" d="M127 0l287 1434h983l-27 -131h-833l-113 -564h743l-26 -131h-744l-121 -608h-149z" />
<glyph unicode="G" horiz-adv-x="1583" d="M131 584q0 238 107.5 434t306 312t461.5 116q180 0 316 -54.5t216 -154.5l-106 -92q-74 86 -180.5 126t-252.5 40q-213 0 -376.5 -96.5t-252.5 -260t-89 -362.5q0 -215 138 -342t398 -127q207 0 367 113l96 481h145l-110 -551q-100 -84 -234.5 -131t-279.5 -47 q-207 0 -358.5 73.5t-231.5 209t-80 313.5z" />
<glyph unicode="H" horiz-adv-x="1665" d="M127 0l287 1434h149l-127 -637h897l127 637h150l-287 -1434h-149l131 659h-897l-132 -659h-149z" />
<glyph unicode="I" horiz-adv-x="618" d="M127 0l287 1434h149l-287 -1434h-149z" />
<glyph unicode="J" horiz-adv-x="1026" d="M-76 195l107 96q41 -82 114.5 -127t173.5 -45q129 0 206 71.5t110 237.5l174 875h-522l26 131h672l-203 -1006q-47 -236 -160.5 -338t-306.5 -102q-137 0 -240.5 55t-150.5 152z" />
<glyph unicode="K" horiz-adv-x="1456" d="M127 0l287 1434h149l-172 -856l1000 856h198l-774 -666l522 -768h-170l-462 676l-353 -301l-76 -375h-149z" />
<glyph unicode="L" horiz-adv-x="1206" d="M127 0l287 1434h149l-260 -1303h803l-27 -131h-952z" />
<glyph unicode="M" horiz-adv-x="1955" d="M127 0l287 1434h123l413 -1065l819 1065h134l-287 -1434h-146l228 1137l-742 -955h-71l-383 973l-230 -1155h-145z" />
<glyph unicode="N" horiz-adv-x="1665" d="M127 0l287 1434h123l686 -1188l237 1188h150l-287 -1434h-123l-686 1188l-238 -1188h-149z" />
<glyph unicode="O" horiz-adv-x="1718" d="M131 584q0 236 106.5 433t303 313t454.5 116q209 0 358.5 -75t228.5 -209t79 -312q0 -236 -107.5 -433.5t-304 -313t-454.5 -115.5q-209 0 -358.5 74.5t-227.5 209t-78 312.5zM281 592q0 -215 137 -342t391 -127q207 0 366.5 97t246.5 262t87 362q0 213 -137 340 t-391 127q-207 0 -366.5 -97.5t-246.5 -262.5t-87 -359z" />
<glyph unicode="P" horiz-adv-x="1470" d="M127 0l287 1434h514q241 0 376.5 -106.5t135.5 -299.5q0 -274 -177.5 -424.5t-488.5 -150.5h-405l-93 -453h-149zM393 586h383q246 0 379 108.5t133 319.5q0 141 -96 215t-277 74h-376z" />
<glyph unicode="Q" horiz-adv-x="1718" d="M131 584q0 236 106.5 433t303 313t454.5 116q209 0 358.5 -75t228.5 -209t79 -312q0 -217 -91 -401.5t-259 -305t-391 -147.5q115 -160 288 -160q80 0 152 32t125 93l65 -92q-63 -76 -153 -115t-193 -39q-279 0 -473 275q-188 10 -323.5 88t-206 208t-70.5 298zM281 592 q0 -215 137 -342t391 -127q207 0 366.5 97t246.5 262t87 362q0 213 -137 340t-391 127q-207 0 -366.5 -97.5t-246.5 -262.5t-87 -359z" />
<glyph unicode="R" horiz-adv-x="1480" d="M127 0l287 1434h516q244 0 378 -106.5t134 -299.5q0 -219 -116 -359.5t-325 -189.5l271 -479h-164l-258 457q-23 -2 -74 -2h-407l-90 -455h-152zM393 586h387q246 0 378 108.5t132 319.5q0 141 -96 215t-274 74h-381z" />
<glyph unicode="S" horiz-adv-x="1259" d="M25 170l73 119q72 -78 199 -125t262 -47q190 0 306 74.5t116 207.5q0 72 -43 117t-108.5 72.5t-178.5 60.5q-133 39 -216 75t-141 106.5t-58 183.5q0 133 72.5 230t202.5 149.5t298 52.5q129 0 245.5 -32t198.5 -91l-63 -123q-78 57 -178.5 87t-210.5 30q-188 0 -303 -78 t-115 -211q0 -74 45 -121t111.5 -74.5t179.5 -60.5q133 -39 215 -74.5t139 -102.5t57 -175q0 -135 -74.5 -232.5t-206.5 -148.5t-304 -51q-158 0 -302.5 51t-217.5 131z" />
<glyph unicode="T" horiz-adv-x="1175" d="M160 1303l26 131h1162l-29 -131h-504l-260 -1303h-149l260 1303h-506z" />
<glyph unicode="U" horiz-adv-x="1622" d="M221 453q0 84 17 159l163 822h150l-164 -818q-16 -86 -16 -145q0 -172 98 -260t283 -88q211 0 336.5 119.5t177.5 373.5l164 818h147l-164 -828q-125 -618 -674 -618q-245 0 -381.5 122.5t-136.5 342.5z" />
<glyph unicode="V" horiz-adv-x="1429" d="M184 1434h156l301 -1244l803 1244h160l-922 -1434h-147z" />
<glyph unicode="W" horiz-adv-x="2275" d="M252 1434h149l170 -1235l674 1235h141l175 -1237l669 1237h152l-770 -1434h-160l-176 1217l-668 -1217h-159z" />
<glyph unicode="X" horiz-adv-x="1343" d="M-72 0l701 745l-379 689h160l319 -582l549 582h172l-655 -701l403 -733h-160l-344 629l-585 -629h-181z" />
<glyph unicode="Y" horiz-adv-x="1300" d="M180 1434h152l332 -807l651 807h162l-764 -951l-97 -483h-149l98 494z" />
<glyph unicode="Z" horiz-adv-x="1333" d="M-16 0l20 104l1180 1199h-924l27 131h1136l-20 -105l-1182 -1198h965l-27 -131h-1175z" />
<glyph unicode="[" horiz-adv-x="653" d="M45 -397l383 1917h375l-25 -123h-229l-332 -1671h227l-24 -123h-375z" />
<glyph unicode="\" horiz-adv-x="686" d="M164 1724h127l297 -1929h-127z" />
<glyph unicode="]" horiz-adv-x="651" d="M-141 -397l24 123h230l331 1671h-229l25 123h376l-383 -1917h-374z" />
<glyph unicode="^" horiz-adv-x="1179" d="M123 293l526 848h123l189 -848h-115l-154 721l-444 -721h-125z" />
<glyph unicode="_" horiz-adv-x="1024" d="M-127 -98l21 98h1024l-21 -98h-1024z" />
<glyph unicode="`" horiz-adv-x="1228" d="M463 1497h193l233 -254h-145z" />
<glyph unicode="a" horiz-adv-x="1388" d="M86 446q0 182 79 328t218 228.5t311 82.5q154 0 258.5 -60t151.5 -173l45 225h145l-215 -1077h-139l35 170q-78 -86 -184.5 -133t-235.5 -47q-137 0 -243.5 55t-166 158.5t-59.5 242.5zM231 453q0 -158 93.5 -246t261.5 -88q133 0 239.5 64.5t167 180t60.5 259.5 q0 158 -93.5 246.5t-261.5 88.5q-133 0 -239.5 -65.5t-167 -181t-60.5 -258.5z" />
<glyph unicode="b" horiz-adv-x="1388" d="M96 0l303 1520h146l-121 -605q78 82 181.5 126t228.5 44q137 0 244.5 -55t167 -157.5t59.5 -241.5q0 -182 -79 -328.5t-218.5 -229.5t-313.5 -83q-156 0 -261 63.5t-150 182.5l-47 -236h-140zM338 453q0 -158 93 -246t261 -88q133 0 238.5 64.5t166 179t60.5 260.5 q0 158 -93 246.5t-261 88.5q-133 0 -238.5 -64.5t-166 -180t-60.5 -260.5z" />
<glyph unicode="c" horiz-adv-x="1153" d="M86 446q0 182 80 328t223 228.5t324 82.5q150 0 257 -54t167 -161l-123 -71q-91 159 -311 159h-3q-133 0 -240.5 -65.5t-168 -180t-60.5 -259.5q0 -158 93.5 -246t265.5 -88q104 0 193 40t147 115l104 -79q-72 -96 -191.5 -150.5t-258.5 -54.5q-152 0 -264.5 56 t-173 159.5t-60.5 240.5z" />
<glyph unicode="d" horiz-adv-x="1388" d="M86 446q0 182 79 328t218 228.5t311 82.5q152 0 257.5 -60t152.5 -173l133 668h145l-303 -1520h-139l35 170q-78 -86 -184.5 -133t-235.5 -47q-137 0 -243.5 55t-166 158.5t-59.5 242.5zM231 453q0 -158 93.5 -246t261.5 -88q133 0 239.5 64.5t167 180t60.5 259.5 q0 158 -93.5 246.5t-261.5 88.5q-133 0 -239.5 -65.5t-167 -181t-60.5 -258.5z" />
<glyph unicode="e" horiz-adv-x="1236" d="M86 449q0 180 77 325.5t213 228t306 82.5q215 0 342 -121.5t127 -334.5q0 -59 -14 -131h-906q-2 -14 -2 -43q0 -164 93.5 -250t277.5 -86q106 0 199.5 35.5t152.5 99.5l66 -104q-76 -76 -189.5 -118t-240.5 -42q-233 0 -367.5 123t-134.5 336zM246 606h768q2 14 2 39 q0 152 -92.5 235t-245.5 83q-162 0 -276.5 -96.5t-155.5 -260.5z" />
<glyph unicode="f" horiz-adv-x="694" d="M119 954l22 123h195l26 135q31 154 124.5 236t244.5 82q66 0 123 -18.5t94 -51.5l-63 -106q-59 53 -154 53q-96 0 -151.5 -51t-77.5 -160l-25 -119h330l-25 -123h-325l-191 -954h-145l190 954h-192z" />
<glyph unicode="g" horiz-adv-x="1404" d="M14 -246l86 111q66 -68 171.5 -106t232.5 -38q203 0 315.5 94.5t151.5 290.5l24 119q-78 -88 -187.5 -136t-242.5 -48q-215 0 -345 116.5t-130 317.5q0 172 79 311.5t219 219t317 79.5q154 0 264 -62t155 -183l45 237h140l-189 -946q-55 -283 -207.5 -411t-418.5 -128 q-152 0 -274 42t-206 120zM238 483q0 -147 94 -230t262 -83q133 0 240.5 61.5t168 170t60.5 243.5q0 147 -94.5 230t-261.5 83q-135 0 -242 -61t-167 -170t-60 -244z" />
<glyph unicode="h" horiz-adv-x="1386" d="M96 0l303 1520h146l-121 -605q150 170 412 170q182 0 283.5 -93t101.5 -257q0 -57 -13 -123l-123 -612h-145l123 614q10 57 10 99q0 117 -70.5 179t-207.5 62q-174 0 -287 -95t-152 -281l-114 -578h-146z" />
<glyph unicode="i" horiz-adv-x="550" d="M96 0l213 1077h146l-213 -1077h-146zM346 1409q0 47 32 79t81 32q43 0 71.5 -28t28.5 -65q0 -49 -32.5 -81.5t-81.5 -32.5q-43 0 -71 28.5t-28 67.5z" />
<glyph unicode="j" horiz-adv-x="561" d="M-356 -340l67 113q61 -55 162 -56q88 0 141.5 49.5t73.5 155.5l231 1155h146l-232 -1159q-66 -326 -362 -326q-70 0 -128 17.5t-99 50.5zM354 1411q0 47 32 79t81 32q43 0 71.5 -28t28.5 -65q0 -49 -32.5 -81.5t-81.5 -32.5q-43 0 -71 28.5t-28 67.5z" />
<glyph unicode="k" horiz-adv-x="1208" d="M96 0l303 1520h146l-205 -1022l741 579h207l-569 -444l387 -633h-170l-332 545l-301 -234l-61 -311h-146z" />
<glyph unicode="l" horiz-adv-x="550" d="M96 0l303 1520h146l-303 -1520h-146z" />
<glyph unicode="m" horiz-adv-x="2172" d="M96 0l213 1077h140l-35 -172q147 180 407 180q135 0 226.5 -55t126.5 -160q80 106 195.5 160.5t258.5 54.5q182 0 281.5 -91t99.5 -255q0 -47 -14 -127l-123 -612h-146l123 614q10 47 11 101q0 115 -68 177t-199 62q-164 0 -272.5 -91t-144.5 -269l-119 -594h-146 l123 614q10 57 10 99q0 117 -66.5 179t-199.5 62q-166 0 -274.5 -95t-147.5 -281l-114 -578h-146z" />
<glyph unicode="n" horiz-adv-x="1386" d="M96 0l213 1077h140l-35 -172q154 180 422 180q182 0 283.5 -93t101.5 -257q0 -57 -13 -123l-123 -612h-145l123 614q10 57 10 99q0 117 -70.5 179t-207.5 62q-174 0 -287 -95t-152 -281l-114 -578h-146z" />
<glyph unicode="o" horiz-adv-x="1284" d="M86 446q0 182 80 328t222 228.5t321 82.5q225 0 357 -122.5t132 -331.5q0 -182 -80 -328.5t-222 -229.5t-321 -83q-147 0 -257.5 56t-171 159.5t-60.5 240.5zM231 453q0 -158 93.5 -246t261.5 -88q133 0 239.5 64.5t167 180t60.5 259.5q0 158 -93.5 246.5t-261.5 88.5 q-133 0 -239.5 -65.5t-167 -181t-60.5 -258.5z" />
<glyph unicode="p" horiz-adv-x="1388" d="M16 -397l293 1474h140l-35 -172q78 88 184.5 134t235.5 46q137 0 244.5 -55t167 -157.5t59.5 -241.5q0 -182 -79 -328.5t-218.5 -229.5t-313.5 -83q-154 0 -258 60.5t-151 174.5l-123 -622h-146zM338 453q0 -158 93 -246t261 -88q133 0 238.5 64.5t166 179t60.5 260.5 q0 158 -93 246.5t-261 88.5q-133 0 -238.5 -64.5t-166 -180t-60.5 -260.5z" />
<glyph unicode="q" horiz-adv-x="1388" d="M86 446q0 182 79 328t218 228.5t311 82.5q156 0 261.5 -63.5t152.5 -179.5l47 235h139l-295 -1474h-145l111 559q-76 -84 -180.5 -128t-229.5 -44q-137 0 -243.5 55t-166 158.5t-59.5 242.5zM231 453q0 -158 93.5 -246t261.5 -88q133 0 239.5 64.5t167 180t60.5 259.5 q0 158 -93.5 246.5t-261.5 88.5q-133 0 -239.5 -65.5t-167 -181t-60.5 -258.5z" />
<glyph unicode="r" horiz-adv-x="821" d="M96 0l213 1077h140l-37 -196q71 104 179.5 154t262.5 50l-27 -141l-41 2q-174 0 -285.5 -100.5t-150.5 -298.5l-108 -547h-146z" />
<glyph unicode="s" horiz-adv-x="1001" d="M-18 121l69 115q61 -53 161.5 -86t211.5 -33q154 0 236.5 50t82.5 142q0 51 -33.5 82t-82.5 47.5t-144 36.5q-113 25 -182.5 49.5t-118.5 77.5t-49 148q0 154 127 244.5t340 90.5q104 0 203.5 -27.5t161.5 -72.5l-62 -117q-61 45 -144 69t-171 24q-147 0 -229.5 -53.5 t-82.5 -143.5q0 -53 35 -86t87.5 -49.5t142.5 -34.5q111 -25 179 -48.5t117.5 -76.5t49.5 -143q0 -158 -130 -247t-347 -89q-129 0 -247 36.5t-181 94.5z" />
<glyph unicode="t" horiz-adv-x="831" d="M119 954l22 123h193l47 236h145l-47 -236h328l-25 -123h-327l-125 -628q-8 -49 -8 -68q0 -143 155 -143q92 0 166 55l35 -111q-91 -69 -236 -69h-4q-121 0 -191.5 65.5t-70.5 180.5q0 45 8 83l125 635h-190z" />
<glyph unicode="u" horiz-adv-x="1378" d="M164 342q0 57 12 121l123 614h145l-122 -614q-10 -57 -11 -96q0 -119 69 -182.5t206 -63.5q172 0 284.5 96t151.5 281l115 579h145l-215 -1077h-139l35 172q-152 -182 -416 -182q-180 0 -281.5 93t-101.5 259z" />
<glyph unicode="v" horiz-adv-x="1110" d="M109 1077h145l223 -919l588 919h152l-693 -1077h-149z" />
<glyph unicode="w" horiz-adv-x="1800" d="M117 1077h133l174 -913l520 913h123l180 -913l512 913h142l-609 -1077h-141l-180 881l-504 -881h-139z" />
<glyph unicode="x" horiz-adv-x="1093" d="M-72 0l543 557l-299 520h154l241 -422l406 422h168l-514 -530l317 -547h-156l-256 449l-432 -449h-172z" />
<glyph unicode="y" horiz-adv-x="1110" d="M-215 -311l78 106q74 -78 190 -78q72 0 129.5 39t118.5 135l76 115l-268 1071h147l223 -917l588 917h150l-787 -1216q-98 -152 -184 -210.5t-205 -58.5q-78 0 -147.5 26t-108.5 71z" />
<glyph unicode="z" horiz-adv-x="1046" d="M-23 0l19 96l840 858h-654l25 123h850l-21 -96l-839 -860h682l-25 -121h-877z" />
<glyph unicode="{" horiz-adv-x="686" d="M115 500l24 123h72q47 0 73.5 24.5t37.5 79.5l108 537q27 131 105.5 193.5t224.5 62.5h76l-25 -123h-53q-154 0 -185 -148l-104 -520q-14 -78 -44 -116t-87 -54q70 -29 70 -110q0 -25 -7 -56l-98 -487q-6 -31 -6 -58q0 -61 32.5 -91.5t92.5 -30.5h55l-24 -123h-76 q-106 0 -168 54t-62 157q0 39 9 77l100 504q4 25 4 35q0 70 -74 70h-71z" />
<glyph unicode="|" horiz-adv-x="604" d="M47 -397l383 1917h135l-383 -1917h-135z" />
<glyph unicode="}" horiz-adv-x="686" d="M-143 -397l24 123h56q154 0 184 147l104 520q16 80 45 117t84 53q-68 29 -67 111q0 25 6 55l98 488q6 31 6 57q0 61 -32.5 92t-92.5 31h-55l23 123h77q106 0 168 -54.5t62 -156.5q0 -39 -8 -78l-101 -504q-4 -25 -4 -35q0 -70 74 -69h72l-25 -123h-72q-47 0 -73.5 -24.5 t-36.5 -80.5l-109 -536q-27 -131 -105.5 -193.5t-224.5 -62.5h-77z" />
<glyph unicode="~" d="M133 569q27 150 108 230t187 80q76 0 126 -31t105 -88q45 -45 80 -67.5t80 -22.5q74 0 126 53t71 143h100q-27 -150 -106.5 -229.5t-188.5 -79.5q-73 0 -122.5 29.5t-108.5 87.5q-45 45 -79 67.5t-79 22.5q-74 0 -126 -52.5t-73 -142.5h-100z" />
<glyph unicode="&#xa2;" horiz-adv-x="1153" d="M86 446q0 180 77 323.5t215 227.5t314 88l47 238h101l-47 -242q117 -12 204.5 -65t139.5 -146l-123 -71q-76 133 -248 155l-166 -835q102 2 188 42t142 113l104 -79q-72 -96 -191.5 -150.5t-258.5 -54.5h-9l-47 -236h-100l49 244q-182 27 -286.5 146.5t-104.5 301.5z M231 453q0 -138 70 -223t201 -105l166 831q-125 -8 -224.5 -74.5t-156 -178t-56.5 -250.5z" />
<glyph unicode="&#xa3;" horiz-adv-x="1304" d="M-47 0l27 131h231l106 535h-233l22 102h232l35 172q51 252 221 379t422 127q270 0 407 -113l-71 -121q-125 98 -344 99q-205 0 -326 -93.5t-162 -291.5l-31 -158h566l-21 -102h-565l-109 -535h803l-28 -131h-1182z" />
<glyph unicode="&#xa5;" horiz-adv-x="1423" d="M129 266l21 90h450l39 193h-453l21 90h409l-436 795h156l405 -748l699 748h159l-739 -795h397l-18 -90h-448l-39 -193h448l-18 -90h-449l-53 -266h-152l54 266h-453z" />
<glyph unicode="&#xa8;" horiz-adv-x="1228" d="M510 1368q0 43 27.5 70.5t64.5 27.5t60.5 -22.5t23.5 -59.5q0 -41 -27.5 -67.5t-64.5 -26.5q-35 0 -59.5 22.5t-24.5 55.5zM877 1368q0 43 26.5 70.5t65.5 27.5q35 0 59.5 -22.5t24.5 -59.5q0 -41 -27.5 -67.5t-66.5 -26.5q-35 0 -58.5 22.5t-23.5 55.5z" />
<glyph unicode="&#xa9;" horiz-adv-x="1656" d="M141 717q0 199 95.5 364.5t261.5 262t368 96.5q203 0 368 -94.5t259 -259t94 -365.5t-96 -368t-262 -263t-367 -96q-200 0 -365 96t-260.5 262t-95.5 365zM219 717q0 -178 84 -326.5t231.5 -234.5t327.5 -86t327.5 87t233.5 235.5t86 328.5t-84 326.5t-230 231.5t-329 85 q-182 0 -329.5 -86t-232.5 -234.5t-85 -326.5zM455 717q0 123 55 220t152.5 151.5t220.5 54.5q102 0 187 -42t136 -116l-88 -65q-41 59 -102.5 87.5t-134.5 28.5q-133 0 -220.5 -88t-87.5 -231t87.5 -231.5t220.5 -88.5q74 0 135 29t102 88l88 -63q-51 -76 -136 -118 t-187 -42q-123 0 -220.5 54t-152.5 151.5t-55 220.5z" />
<glyph unicode="&#xab;" horiz-adv-x="976" d="M102 539l373 389h141l-368 -393l207 -383h-133zM467 539l373 389h141l-368 -393l207 -383h-133z" />
<glyph unicode="&#xad;" horiz-adv-x="782" d="M115 492l24 126h537l-25 -126h-536z" />
<glyph unicode="&#xae;" horiz-adv-x="1656" d="M141 717q0 199 95.5 364.5t261.5 262t368 96.5q203 0 368 -94.5t259 -259t94 -365.5t-96 -368t-262 -263t-367 -96t-365.5 96t-260 262t-95.5 365zM219 717q0 -178 84 -326.5t231.5 -234.5t327.5 -86t327.5 87t233.5 235.5t86 328.5t-84 326.5t-230 231.5t-329 85 q-182 0 -329.5 -86t-232.5 -234.5t-85 -326.5zM582 303v827h321q150 0 238 -73.5t88 -200.5q0 -96 -48 -162.5t-134 -95.5l192 -295h-111l-180 277q-14 -2 -45 -2h-215v-275h-106zM686 668h209q109 0 169 49t60 139q0 88 -60 136t-169 48h-209v-372z" />
<glyph unicode="&#xb4;" horiz-adv-x="1228" d="M617 1243l311 254h199l-359 -254h-151z" />
<glyph unicode="&#xb8;" horiz-adv-x="1228" d="M215 -403l45 77q53 -39 138 -39q66 0 102.5 30t36.5 79q0 39 -29 60.5t-84 21.5h-45l86 186h88l-53 -116q70 -8 106.5 -47t36.5 -99q0 -90 -70.5 -145.5t-185.5 -55.5q-106 1 -172 48z" />
<glyph unicode="&#xbb;" horiz-adv-x="978" d="M-4 152l371 393l-207 383h133l219 -389l-375 -387h-141zM361 152l371 393l-207 383h133l219 -389l-375 -387h-141z" />
<glyph unicode="&#xc0;" horiz-adv-x="1468" d="M-102 0l942 1434h149l369 -1434h-152l-96 383h-801l-248 -383h-163zM387 506h694l-194 774zM645 1804h193l233 -254h-145z" />
<glyph unicode="&#xc1;" horiz-adv-x="1468" d="M-102 0l942 1434h149l369 -1434h-152l-96 383h-801l-248 -383h-163zM387 506h694l-194 774zM799 1550l311 254h199l-358 -254h-152z" />
<glyph unicode="&#xc2;" horiz-adv-x="1468" d="M-102 0l942 1434h149l369 -1434h-152l-96 383h-801l-248 -383h-163zM387 506h694l-194 774zM600 1550l293 254h148l235 -254h-131l-184 170l-221 -170h-140z" />
<glyph unicode="&#xc4;" horiz-adv-x="1468" d="M-102 0l942 1434h149l369 -1434h-152l-96 383h-801l-248 -383h-163zM387 506h694l-194 774zM693 1675q0 43 27.5 71t64.5 28t60.5 -22.5t23.5 -59.5q0 -41 -28 -68t-64 -27q-35 0 -59.5 22.5t-24.5 55.5zM1059 1675q0 43 26.5 71t65.5 28q35 0 59.5 -22.5t24.5 -59.5 q0 -41 -27.5 -68t-66.5 -27q-35 0 -58.5 22.5t-23.5 55.5z" />
<glyph unicode="&#xc6;" horiz-adv-x="2115" d="M-104 0l1153 1434h1093l-26 -131h-834l-102 -510h745l-29 -129h-741l-106 -533h862l-27 -131h-1010l76 383h-577l-307 -383h-170zM471 506h504l160 799h-25z" />
<glyph unicode="&#xc7;" horiz-adv-x="1472" d="M131 584q0 238 107.5 434t306 312t459.5 116q172 0 305 -54.5t204 -154.5l-106 -94q-137 168 -416 168q-211 0 -372.5 -97.5t-249.5 -261.5t-88 -360q0 -215 138 -342t394 -127q281 0 455 170l88 -100q-94 -98 -239.5 -151.5t-315.5 -53.5q-209 0 -360.5 74.5t-230.5 209 t-79 312.5zM448 -403l45 77q53 -39 138 -39q66 0 102.5 30t36.5 79q0 39 -29 60.5t-84 21.5h-45l86 186h88l-53 -116q70 -8 106.5 -47t36.5 -99q0 -90 -70.5 -145.5t-185.5 -55.5q-106 1 -172 48z" />
<glyph unicode="&#xc8;" horiz-adv-x="1370" d="M127 0l287 1434h983l-27 -131h-833l-103 -510h744l-25 -129h-743l-107 -533h862l-26 -131h-1012zM636 1804h193l233 -254h-145z" />
<glyph unicode="&#xc9;" horiz-adv-x="1370" d="M127 0l287 1434h983l-27 -131h-833l-103 -510h744l-25 -129h-743l-107 -533h862l-26 -131h-1012zM790 1550l311 254h199l-358 -254h-152z" />
<glyph unicode="&#xca;" horiz-adv-x="1370" d="M127 0l287 1434h983l-27 -131h-833l-103 -510h744l-25 -129h-743l-107 -533h862l-26 -131h-1012zM591 1550l293 254h148l235 -254h-131l-184 170l-221 -170h-140z" />
<glyph unicode="&#xcb;" horiz-adv-x="1370" d="M127 0l287 1434h983l-27 -131h-833l-103 -510h744l-25 -129h-743l-107 -533h862l-26 -131h-1012zM684 1675q0 43 27.5 71t64.5 28t60.5 -22.5t23.5 -59.5q0 -41 -28 -68t-64 -27q-35 0 -59.5 22.5t-24.5 55.5zM1050 1675q0 43 26.5 71t65.5 28q35 0 59.5 -22.5 t24.5 -59.5q0 -41 -27.5 -68t-66.5 -27q-35 0 -58.5 22.5t-23.5 55.5z" />
<glyph unicode="&#xcc;" horiz-adv-x="618" d="M127 0l287 1434h149l-287 -1434h-149zM219 1804h193l233 -254h-145z" />
<glyph unicode="&#xcd;" horiz-adv-x="618" d="M127 0l287 1434h149l-287 -1434h-149zM373 1550l311 254h199l-358 -254h-152z" />
<glyph unicode="&#xce;" horiz-adv-x="618" d="M127 0l287 1434h149l-287 -1434h-149zM174 1550l293 254h148l235 -254h-131l-184 170l-221 -170h-140z" />
<glyph unicode="&#xcf;" horiz-adv-x="618" d="M127 0l287 1434h149l-287 -1434h-149zM267 1675q0 43 27.5 71t64.5 28t60.5 -22.5t23.5 -59.5q0 -41 -28 -68t-64 -27q-35 0 -59.5 22.5t-24.5 55.5zM633 1675q0 43 26.5 71t65.5 28q35 0 59.5 -22.5t24.5 -59.5q0 -41 -27.5 -68t-66.5 -27q-35 0 -58.5 22.5t-23.5 55.5z " />
<glyph unicode="&#xd2;" horiz-adv-x="1718" d="M131 584q0 236 106.5 433t303 313t454.5 116q209 0 358.5 -75t228.5 -209t79 -312q0 -236 -107.5 -433.5t-304 -313t-454.5 -115.5q-209 0 -358.5 74.5t-227.5 209t-78 312.5zM281 592q0 -215 137 -342t391 -127q207 0 366.5 97t246.5 262t87 362q0 213 -137 340 t-391 127q-207 0 -366.5 -97.5t-246.5 -262.5t-87 -359zM770 1804h193l233 -254h-145z" />
<glyph unicode="&#xd3;" horiz-adv-x="1718" d="M131 584q0 236 106.5 433t303 313t454.5 116q209 0 358.5 -75t228.5 -209t79 -312q0 -236 -107.5 -433.5t-304 -313t-454.5 -115.5q-209 0 -358.5 74.5t-227.5 209t-78 312.5zM281 592q0 -215 137 -342t391 -127q207 0 366.5 97t246.5 262t87 362q0 213 -137 340 t-391 127q-207 0 -366.5 -97.5t-246.5 -262.5t-87 -359zM924 1550l311 254h199l-358 -254h-152z" />
<glyph unicode="&#xd4;" horiz-adv-x="1718" d="M131 584q0 236 106.5 433t303 313t454.5 116q209 0 358.5 -75t228.5 -209t79 -312q0 -236 -107.5 -433.5t-304 -313t-454.5 -115.5q-209 0 -358.5 74.5t-227.5 209t-78 312.5zM281 592q0 -215 137 -342t391 -127q207 0 366.5 97t246.5 262t87 362q0 213 -137 340 t-391 127q-207 0 -366.5 -97.5t-246.5 -262.5t-87 -359zM725 1550l293 254h148l235 -254h-131l-184 170l-221 -170h-140z" />
<glyph unicode="&#xd6;" horiz-adv-x="1718" d="M131 584q0 236 106.5 433t303 313t454.5 116q209 0 358.5 -75t228.5 -209t79 -312q0 -236 -107.5 -433.5t-304 -313t-454.5 -115.5q-209 0 -358.5 74.5t-227.5 209t-78 312.5zM281 592q0 -215 137 -342t391 -127q207 0 366.5 97t246.5 262t87 362q0 213 -137 340 t-391 127q-207 0 -366.5 -97.5t-246.5 -262.5t-87 -359zM818 1675q0 43 27.5 71t64.5 28t60.5 -22.5t23.5 -59.5q0 -41 -28 -68t-64 -27q-35 0 -59.5 22.5t-24.5 55.5zM1184 1675q0 43 26.5 71t65.5 28q35 0 59.5 -22.5t24.5 -59.5q0 -41 -27.5 -68t-66.5 -27 q-35 0 -58.5 22.5t-23.5 55.5z" />
<glyph unicode="&#xd9;" horiz-adv-x="1622" d="M221 453q0 84 17 159l163 822h150l-164 -818q-16 -86 -16 -145q0 -172 98 -260t283 -88q211 0 336.5 119.5t177.5 373.5l164 818h147l-164 -828q-125 -618 -674 -618q-245 0 -381.5 122.5t-136.5 342.5zM720 1804h193l233 -254h-145z" />
<glyph unicode="&#xda;" horiz-adv-x="1622" d="M221 453q0 84 17 159l163 822h150l-164 -818q-16 -86 -16 -145q0 -172 98 -260t283 -88q211 0 336.5 119.5t177.5 373.5l164 818h147l-164 -828q-125 -618 -674 -618q-245 0 -381.5 122.5t-136.5 342.5zM874 1550l311 254h199l-358 -254h-152z" />
<glyph unicode="&#xdb;" horiz-adv-x="1622" d="M221 453q0 84 17 159l163 822h150l-164 -818q-16 -86 -16 -145q0 -172 98 -260t283 -88q211 0 336.5 119.5t177.5 373.5l164 818h147l-164 -828q-125 -618 -674 -618q-245 0 -381.5 122.5t-136.5 342.5zM675 1550l293 254h148l235 -254h-131l-184 170l-221 -170h-140z " />
<glyph unicode="&#xdc;" horiz-adv-x="1622" d="M221 453q0 84 17 159l163 822h150l-164 -818q-16 -86 -16 -145q0 -172 98 -260t283 -88q211 0 336.5 119.5t177.5 373.5l164 818h147l-164 -828q-125 -618 -674 -618q-245 0 -381.5 122.5t-136.5 342.5zM768 1675q0 43 27.5 71t64.5 28t60.5 -22.5t23.5 -59.5 q0 -41 -28 -68t-64 -27q-35 0 -59.5 22.5t-24.5 55.5zM1134 1675q0 43 26.5 71t65.5 28q35 0 59.5 -22.5t24.5 -59.5q0 -41 -27.5 -68t-66.5 -27q-35 0 -58.5 22.5t-23.5 55.5z" />
<glyph unicode="&#xdd;" horiz-adv-x="1300" d="M180 1434h152l332 -807l651 807h162l-764 -951l-97 -483h-149l98 494zM715 1550l311 254h199l-358 -254h-152z" />
<glyph unicode="&#xe0;" horiz-adv-x="1388" d="M86 446q0 182 79 328t218 228.5t311 82.5q154 0 258.5 -60t151.5 -173l45 225h145l-215 -1077h-139l35 170q-78 -86 -184.5 -133t-235.5 -47q-137 0 -243.5 55t-166 158.5t-59.5 242.5zM231 453q0 -158 93.5 -246t261.5 -88q133 0 239.5 64.5t167 180t60.5 259.5 q0 158 -93.5 246.5t-261.5 88.5q-133 0 -239.5 -65.5t-167 -181t-60.5 -258.5zM522 1499h193l233 -254h-145z" />
<glyph unicode="&#xe2;" horiz-adv-x="1388" d="M86 446q0 182 79 328t218 228.5t311 82.5q154 0 258.5 -60t151.5 -173l45 225h145l-215 -1077h-139l35 170q-78 -86 -184.5 -133t-235.5 -47q-137 0 -243.5 55t-166 158.5t-59.5 242.5zM231 453q0 -158 93.5 -246t261.5 -88q133 0 239.5 64.5t167 180t60.5 259.5 q0 158 -93.5 246.5t-261.5 88.5q-133 0 -239.5 -65.5t-167 -181t-60.5 -258.5zM477 1245l293 254h147l236 -254h-131l-185 170l-221 -170h-139z" />
<glyph unicode="&#xe4;" horiz-adv-x="1388" d="M86 446q0 182 79 328t218 228.5t311 82.5q154 0 258.5 -60t151.5 -173l45 225h145l-215 -1077h-139l35 170q-78 -86 -184.5 -133t-235.5 -47q-137 0 -243.5 55t-166 158.5t-59.5 242.5zM231 453q0 -158 93.5 -246t261.5 -88q133 0 239.5 64.5t167 180t60.5 259.5 q0 158 -93.5 246.5t-261.5 88.5q-133 0 -239.5 -65.5t-167 -181t-60.5 -258.5zM569 1370q0 43 27.5 70.5t64.5 27.5t60.5 -22.5t23.5 -59.5q0 -41 -27.5 -67.5t-64.5 -26.5q-35 0 -59.5 22.5t-24.5 55.5zM936 1370q0 43 26.5 70.5t65.5 27.5q35 0 59.5 -22.5t24.5 -59.5 q0 -41 -27.5 -67.5t-66.5 -26.5q-35 0 -58.5 22.5t-23.5 55.5z" />
<glyph unicode="&#xe6;" horiz-adv-x="2021" d="M66 274q0 156 117.5 245t338.5 89h361l10 56q8 41 8 84q0 104 -66.5 157t-197.5 53q-102 0 -200.5 -33.5t-170.5 -90.5l-49 114q86 66 205 101.5t235 35.5q152 0 243 -54t120 -154q82 100 198.5 154t245.5 54q215 0 344 -121.5t129 -334.5q0 -68 -16 -129h-911 q-2 -14 -2 -45q0 -168 94 -252t278 -84q221 0 351 135l67 -104q-78 -76 -191.5 -118t-238.5 -42q-162 0 -280.5 65.5t-172.5 194.5q-70 -133 -193.5 -196.5t-272.5 -63.5q-180 0 -281.5 76.5t-101.5 207.5zM209 283q0 -86 64.5 -132.5t189.5 -46.5q141 0 245.5 80t133.5 228 l18 88h-348q-143 0 -223 -57.5t-80 -159.5zM1026 608h770q12 168 -82 261.5t-256 93.5q-160 0 -275.5 -96.5t-156.5 -258.5z" />
<glyph unicode="&#xe7;" horiz-adv-x="1153" d="M86 446q0 182 80 328t223 228.5t324 82.5q150 0 257 -54t167 -161l-123 -71q-92 160 -314 159q-133 0 -240.5 -65.5t-168 -180t-60.5 -259.5q0 -158 93.5 -246t265.5 -88q104 0 193 40t147 115l104 -79q-72 -96 -191.5 -150.5t-258.5 -54.5q-152 0 -264.5 56t-173 159.5 t-60.5 240.5zM280 -405l45 77q53 -39 138 -39q66 0 102.5 30t36.5 79q0 39 -29 60.5t-84 21.5h-45l86 186h88l-53 -116q70 -8 106.5 -47t36.5 -99q0 -90 -70.5 -145.5t-185.5 -55.5q-106 1 -172 48z" />
<glyph unicode="&#xe8;" horiz-adv-x="1236" d="M86 449q0 180 77 325.5t213 228t306 82.5q215 0 342 -121.5t127 -334.5q0 -59 -14 -131h-906q-2 -14 -2 -43q0 -164 93.5 -250t277.5 -86q106 0 199.5 35.5t152.5 99.5l66 -104q-76 -76 -189.5 -118t-240.5 -42q-233 0 -367.5 123t-134.5 336zM246 606h768q2 14 2 39 q0 152 -92.5 235t-245.5 83q-162 0 -276.5 -96.5t-155.5 -260.5zM457 1495h193l233 -254h-145z" />
<glyph unicode="&#xe9;" horiz-adv-x="1236" d="M86 449q0 180 77 325.5t213 228t306 82.5q215 0 342 -121.5t127 -334.5q0 -59 -14 -131h-906q-2 -14 -2 -43q0 -164 93.5 -250t277.5 -86q106 0 199.5 35.5t152.5 99.5l66 -104q-76 -76 -189.5 -118t-240.5 -42q-233 0 -367.5 123t-134.5 336zM246 606h768q2 14 2 39 q0 152 -92.5 235t-245.5 83q-162 0 -276.5 -96.5t-155.5 -260.5zM611 1241l311 254h199l-359 -254h-151z" />
<glyph unicode="&#xea;" horiz-adv-x="1236" d="M86 449q0 180 77 325.5t213 228t306 82.5q215 0 342 -121.5t127 -334.5q0 -59 -14 -131h-906q-2 -14 -2 -43q0 -164 93.5 -250t277.5 -86q106 0 199.5 35.5t152.5 99.5l66 -104q-76 -76 -189.5 -118t-240.5 -42q-233 0 -367.5 123t-134.5 336zM246 606h768q2 14 2 39 q0 152 -92.5 235t-245.5 83q-162 0 -276.5 -96.5t-155.5 -260.5zM412 1241l293 254h147l236 -254h-131l-185 170l-221 -170h-139z" />
<glyph unicode="&#xeb;" horiz-adv-x="1236" d="M86 449q0 180 77 325.5t213 228t306 82.5q215 0 342 -121.5t127 -334.5q0 -59 -14 -131h-906q-2 -14 -2 -43q0 -164 93.5 -250t277.5 -86q106 0 199.5 35.5t152.5 99.5l66 -104q-76 -76 -189.5 -118t-240.5 -42q-233 0 -367.5 123t-134.5 336zM246 606h768q2 14 2 39 q0 152 -92.5 235t-245.5 83q-162 0 -276.5 -96.5t-155.5 -260.5zM504 1366q0 43 27.5 70.5t64.5 27.5t60.5 -22.5t23.5 -59.5q0 -41 -27.5 -67.5t-64.5 -26.5q-35 0 -59.5 22.5t-24.5 55.5zM871 1366q0 43 26.5 70.5t65.5 27.5q35 0 59.5 -22.5t24.5 -59.5 q0 -41 -27.5 -67.5t-66.5 -26.5q-35 0 -58.5 22.5t-23.5 55.5z" />
<glyph unicode="&#xec;" horiz-adv-x="550" d="M96 0l213 1077h146l-213 -1077h-146zM125 1499h193l233 -254h-145z" />
<glyph unicode="&#xed;" horiz-adv-x="550" d="M96 0l213 1077h146l-213 -1077h-146zM279 1245l311 254h199l-359 -254h-151z" />
<glyph unicode="&#xee;" horiz-adv-x="550" d="M96 0l213 1077h146l-213 -1077h-146zM131 1245l246 254h141l187 -254h-127l-138 166l-176 -166h-133z" />
<glyph unicode="&#xef;" horiz-adv-x="550" d="M96 0l213 1077h146l-213 -1077h-146zM221 1370q0 41 27 69.5t65 28.5q33 0 55.5 -23.5t22.5 -58.5q0 -41 -25.5 -67.5t-64.5 -26.5q-35 0 -57.5 22.5t-22.5 55.5zM494 1370q0 41 26.5 69.5t65.5 28.5q33 0 55.5 -23.5t22.5 -58.5q0 -41 -26 -67.5t-64 -26.5 q-35 0 -57.5 22.5t-22.5 55.5z" />
<glyph unicode="&#xf2;" horiz-adv-x="1284" d="M86 446q0 182 80 328t222 228.5t321 82.5q225 0 357 -122.5t132 -331.5q0 -182 -80 -328.5t-222 -229.5t-321 -83q-147 0 -257.5 56t-171 159.5t-60.5 240.5zM231 453q0 -158 93.5 -246t261.5 -88q133 0 239.5 64.5t167 180t60.5 259.5q0 158 -93.5 246.5t-261.5 88.5 q-133 0 -239.5 -65.5t-167 -181t-60.5 -258.5zM487 1499h193l233 -254h-145z" />
<glyph unicode="&#xf3;" horiz-adv-x="1284" d="M86 446q0 182 80 328t222 228.5t321 82.5q225 0 357 -122.5t132 -331.5q0 -182 -80 -328.5t-222 -229.5t-321 -83q-147 0 -257.5 56t-171 159.5t-60.5 240.5zM231 453q0 -158 93.5 -246t261.5 -88q133 0 239.5 64.5t167 180t60.5 259.5q0 158 -93.5 246.5t-261.5 88.5 q-133 0 -239.5 -65.5t-167 -181t-60.5 -258.5zM641 1245l311 254h199l-359 -254h-151z" />
<glyph unicode="&#xf4;" horiz-adv-x="1284" d="M86 446q0 182 80 328t222 228.5t321 82.5q225 0 357 -122.5t132 -331.5q0 -182 -80 -328.5t-222 -229.5t-321 -83q-147 0 -257.5 56t-171 159.5t-60.5 240.5zM231 453q0 -158 93.5 -246t261.5 -88q133 0 239.5 64.5t167 180t60.5 259.5q0 158 -93.5 246.5t-261.5 88.5 q-133 0 -239.5 -65.5t-167 -181t-60.5 -258.5zM442 1245l293 254h147l236 -254h-131l-185 170l-221 -170h-139z" />
<glyph unicode="&#xf6;" horiz-adv-x="1284" d="M86 446q0 182 80 328t222 228.5t321 82.5q225 0 357 -122.5t132 -331.5q0 -182 -80 -328.5t-222 -229.5t-321 -83q-147 0 -257.5 56t-171 159.5t-60.5 240.5zM231 453q0 -158 93.5 -246t261.5 -88q133 0 239.5 64.5t167 180t60.5 259.5q0 158 -93.5 246.5t-261.5 88.5 q-133 0 -239.5 -65.5t-167 -181t-60.5 -258.5zM534 1370q0 43 27.5 70.5t64.5 27.5t60.5 -22.5t23.5 -59.5q0 -41 -27.5 -67.5t-64.5 -26.5q-35 0 -59.5 22.5t-24.5 55.5zM901 1370q0 43 26.5 70.5t65.5 27.5q35 0 59.5 -22.5t24.5 -59.5q0 -41 -27.5 -67.5t-66.5 -26.5 q-35 0 -58.5 22.5t-23.5 55.5z" />
<glyph unicode="&#xf9;" horiz-adv-x="1378" d="M164 342q0 57 12 121l123 614h145l-122 -614q-10 -57 -11 -96q0 -119 69 -182.5t206 -63.5q172 0 284.5 96t151.5 281l115 579h145l-215 -1077h-139l35 172q-152 -182 -416 -182q-180 0 -281.5 93t-101.5 259zM532 1499h193l233 -254h-145z" />
<glyph unicode="&#xfa;" horiz-adv-x="1378" d="M164 342q0 57 12 121l123 614h145l-122 -614q-10 -57 -11 -96q0 -119 69 -182.5t206 -63.5q172 0 284.5 96t151.5 281l115 579h145l-215 -1077h-139l35 172q-152 -182 -416 -182q-180 0 -281.5 93t-101.5 259zM686 1245l311 254h199l-359 -254h-151z" />
<glyph unicode="&#xfb;" horiz-adv-x="1378" d="M164 342q0 57 12 121l123 614h145l-122 -614q-10 -57 -11 -96q0 -119 69 -182.5t206 -63.5q172 0 284.5 96t151.5 281l115 579h145l-215 -1077h-139l35 172q-152 -182 -416 -182q-180 0 -281.5 93t-101.5 259zM487 1245l293 254h147l236 -254h-131l-185 170l-221 -170 h-139z" />
<glyph unicode="&#xfc;" horiz-adv-x="1378" d="M164 342q0 57 12 121l123 614h145l-122 -614q-10 -57 -11 -96q0 -119 69 -182.5t206 -63.5q172 0 284.5 96t151.5 281l115 579h145l-215 -1077h-139l35 172q-152 -182 -416 -182q-180 0 -281.5 93t-101.5 259zM579 1370q0 43 27.5 70.5t64.5 27.5t60.5 -22.5t23.5 -59.5 q0 -41 -27.5 -67.5t-64.5 -26.5q-35 0 -59.5 22.5t-24.5 55.5zM946 1370q0 43 26.5 70.5t65.5 27.5q35 0 59.5 -22.5t24.5 -59.5q0 -41 -27.5 -67.5t-66.5 -26.5q-35 0 -58.5 22.5t-23.5 55.5z" />
<glyph unicode="&#xfd;" horiz-adv-x="1110" d="M-215 -311l78 106q74 -78 190 -78q72 0 129.5 39t118.5 135l76 115l-268 1071h147l223 -917l588 917h150l-787 -1216q-98 -152 -184 -210.5t-205 -58.5q-78 0 -147.5 26t-108.5 71zM529 1245l311 254h199l-359 -254h-151z" />
<glyph unicode="&#xff;" horiz-adv-x="1110" d="M-215 -311l78 106q74 -78 190 -78q72 0 129.5 39t118.5 135l76 115l-268 1071h147l223 -917l588 917h150l-787 -1216q-98 -152 -184 -210.5t-205 -58.5q-78 0 -147.5 26t-108.5 71zM422 1370q0 43 27.5 70.5t64.5 27.5t60.5 -22.5t23.5 -59.5q0 -41 -27.5 -67.5 t-64.5 -26.5q-35 0 -59.5 22.5t-24.5 55.5zM789 1370q0 43 26.5 70.5t65.5 27.5q35 0 59.5 -22.5t24.5 -59.5q0 -41 -27.5 -67.5t-66.5 -26.5q-35 0 -58.5 22.5t-23.5 55.5z" />
<glyph unicode="&#x152;" horiz-adv-x="2295" d="M131 584q0 250 110.5 442.5t312.5 300t468 107.5h1300l-26 -131h-834l-102 -510h743l-24 -129h-744l-106 -533h862l-27 -131h-1257q-213 0 -365.5 71.5t-231.5 204t-79 308.5zM281 592q0 -215 138 -338t402 -123h258l234 1172h-295q-223 0 -390 -91.5t-257 -253 t-90 -366.5z" />
<glyph unicode="&#x153;" horiz-adv-x="2189" d="M86 446q0 182 78 328t217 228.5t315 82.5q166 0 283 -71.5t166 -200.5q78 127 207 199.5t284 72.5q213 0 340 -121.5t127 -334.5q0 -74 -14 -131h-907q-2 -14 -2 -43q0 -164 94 -250t278 -86q106 0 199.5 35.5t153.5 99.5l65 -104q-76 -76 -189.5 -118t-240.5 -42 q-176 0 -296 72.5t-167 203.5q-82 -129 -215 -202.5t-297 -73.5q-143 0 -251.5 56t-168 159.5t-59.5 240.5zM231 453q0 -158 93.5 -246t261.5 -88q133 0 239.5 64.5t167 180t60.5 259.5q0 158 -93.5 246.5t-261.5 88.5q-133 0 -239.5 -65.5t-167 -181t-60.5 -258.5z M1196 606h770q2 14 2 39q0 152 -92 235t-246 83q-162 0 -277.5 -96.5t-156.5 -260.5z" />
<glyph unicode="&#x178;" horiz-adv-x="1300" d="M180 1434h152l332 -807l651 807h162l-764 -951l-97 -483h-149l98 494zM609 1675q0 43 27.5 71t64.5 28t60.5 -22.5t23.5 -59.5q0 -41 -28 -68t-64 -27q-35 0 -59.5 22.5t-24.5 55.5zM975 1675q0 43 26.5 71t65.5 28q35 0 59.5 -22.5t24.5 -59.5q0 -41 -27.5 -68 t-66.5 -27q-35 0 -58.5 22.5t-23.5 55.5z" />
<glyph unicode="&#x2c6;" horiz-adv-x="1228" d="M418 1243l293 254h147l236 -254h-131l-185 170l-221 -170h-139z" />
<glyph unicode="&#x2da;" horiz-adv-x="1228" d="M580 1427q0 88 61.5 151.5t151.5 63.5t151.5 -63t61.5 -152q0 -86 -61.5 -147t-151.5 -61q-92 0 -152.5 61t-60.5 147zM654 1427q0 -59 38.5 -98t100.5 -39q61 0 100 39t39 98t-40 101.5t-99 42.5t-99 -41t-40 -103z" />
<glyph unicode="&#x2dc;" horiz-adv-x="1228" d="M441 1264q16 106 71 165.5t135 59.5q45 0 79 -19.5t79 -58.5q33 -31 56.5 -46t52.5 -15q45 0 76.5 34.5t41.5 92.5h88q-16 -104 -70 -163t-136 -59q-45 0 -80 20.5t-76 57.5q-35 31 -59.5 46.5t-53.5 15.5q-45 0 -75.5 -36t-40.5 -95h-88z" />
<glyph unicode="&#x400;" horiz-adv-x="1349" d="M135 0l287 1434h983l-27 -131h-833l-103 -510h744l-25 -129h-743l-107 -533h862l-26 -131h-1012zM645 1804h193l233 -254h-145z" />
<glyph unicode="&#x401;" horiz-adv-x="1349" d="M135 0l287 1434h983l-27 -131h-833l-103 -510h744l-25 -129h-743l-107 -533h862l-26 -131h-1012zM693 1675q0 43 27.5 71t64.5 28t60.5 -22.5t23.5 -59.5q0 -41 -28 -68t-64 -27q-35 0 -59.5 22.5t-24.5 55.5zM1059 1675q0 43 26.5 71t65.5 28q35 0 59.5 -22.5 t24.5 -59.5q0 -41 -27.5 -68t-66.5 -27q-35 0 -58.5 22.5t-23.5 55.5z" />
<glyph unicode="&#x402;" horiz-adv-x="1689" d="M178 1303l27 131h1198l-27 -131h-547l-104 -525q240 86 430 86q203 0 319.5 -92t116.5 -262q0 -150 -74.5 -268.5t-201.5 -185t-281 -66.5q-78 0 -172 22l35 125q66 -18 129 -18q113 0 208 50t151.5 137t56.5 196q0 115 -80 175t-223 60q-188 0 -441 -100l-127 -637h-149 l258 1303h-502z" />
<glyph unicode="&#x403;" d="M135 0l287 1434h911l-28 -131h-764l-258 -1303h-148zM745 1550l311 254h199l-358 -254h-152z" />
<glyph unicode="&#x404;" horiz-adv-x="1452" d="M144 584q0 236 120.5 434.5t323.5 313t432 114.5q168 0 297 -53t203 -158l-115 -96q-137 172 -405 172q-158 0 -301.5 -70.5t-243.5 -194.5t-137 -280h745l-22 -125h-742v-32q0 -139 57.5 -250t163 -173.5t242.5 -62.5q272 0 473 172l78 -96q-115 -102 -266.5 -156.5 t-319.5 -54.5q-174 0 -306 77t-204.5 212t-72.5 307z" />
<glyph unicode="&#x405;" horiz-adv-x="1282" d="M39 170l73 119q72 -78 199 -125t262 -47q190 0 306 74.5t116 207.5q0 72 -43 117t-108.5 72.5t-178.5 60.5q-133 39 -216 75t-141 106.5t-58 183.5q0 133 72.5 230t202.5 149.5t298 52.5q129 0 245.5 -32t198.5 -91l-63 -123q-78 57 -178.5 87t-210.5 30q-188 0 -303 -78 t-115 -211q0 -74 45 -121t111.5 -74.5t179.5 -60.5q133 -39 215 -74.5t139 -102.5t57 -175q0 -135 -74.5 -232.5t-206.5 -148.5t-304 -51q-158 0 -302.5 51t-217.5 131z" />
<glyph unicode="&#x406;" horiz-adv-x="618" d="M127 0l287 1434h149l-287 -1434h-149z" />
<glyph unicode="&#x407;" horiz-adv-x="618" d="M127 0l287 1434h149l-287 -1434h-149zM267 1675q0 43 27.5 71t64.5 28t60.5 -22.5t23.5 -59.5q0 -41 -28 -68t-64 -27q-35 0 -59.5 22.5t-24.5 55.5zM633 1675q0 43 26.5 71t65.5 28q35 0 59.5 -22.5t24.5 -59.5q0 -41 -27.5 -68t-66.5 -27q-35 0 -58.5 22.5t-23.5 55.5z " />
<glyph unicode="&#x408;" horiz-adv-x="1081" d="M-23 195l107 96q41 -82 114.5 -127t173.5 -45q129 0 206 71.5t110 237.5l174 875h-522l26 131h672l-203 -1006q-47 -236 -160.5 -338t-306.5 -102q-137 0 -240.5 55t-150.5 152z" />
<glyph unicode="&#x409;" horiz-adv-x="2435" d="M-84 0l37 135q33 -8 63 -8q92 0 161 67.5t129.5 218t121.5 408.5l145 613h971l-287 -1434h-147l260 1303h-692l-113 -480q-76 -313 -149.5 -494.5t-165.5 -262t-219 -80.5q-55 0 -115 14zM1110 0l287 1434h147l-102 -512h440q457 0 457 -379q0 -164 -80 -287 t-228.5 -189.5t-348.5 -66.5h-572zM1282 121h414q225 0 356 109.5t131 297.5q0 141 -80.5 206t-257.5 65h-428z" />
<glyph unicode="&#x40a;" horiz-adv-x="2428" d="M135 0l287 1434h147l-116 -590h864l119 590h149l-115 -584h445q201 0 309.5 -88t108.5 -248q0 -154 -76 -270.5t-215 -180t-324 -63.5h-569l143 713h-866l-143 -713h-148zM1323 121h410q204 0 324 99t120 265q0 117 -84 179.5t-240 62.5h-409l-60 -301z" />
<glyph unicode="&#x40b;" horiz-adv-x="1710" d="M176 1303l27 131h1194l-27 -131h-545l-106 -535q246 92 444 92q199 0 310.5 -89t111.5 -259q0 -51 -12 -117l-80 -395h-147l77 389q8 41 9 88q0 123 -78 185.5t-226 62.5q-186 0 -438 -107l-123 -618h-147l258 1303h-502z" />
<glyph unicode="&#x40c;" horiz-adv-x="1437" d="M135 0l287 1434h149l-129 -643h320l614 643h172l-678 -701l418 -733h-162l-378 659h-332l-131 -659h-150zM786 1550l311 254h199l-358 -254h-152z" />
<glyph unicode="&#x40d;" horiz-adv-x="1687" d="M135 0l287 1434h147l-237 -1188l1155 1188h137l-287 -1434h-147l240 1186l-1158 -1186h-137zM749 1804h193l233 -254h-145z" />
<glyph unicode="&#x40e;" horiz-adv-x="1394" d="M74 14l55 119q68 -27 123 -27q150 0 272 160l62 74l-363 1094h158l307 -967l705 967h155l-891 -1211q-182 -250 -407 -250q-90 0 -176 41zM594 1757q0 14 4 43h103q-2 -8 -2 -24q0 -70 52 -111t140 -41q96 0 163.5 47t88.5 129h104q-25 -125 -120 -193.5t-240 -68.5 q-137 0 -215 58.5t-78 160.5z" />
<glyph unicode="&#x40f;" horiz-adv-x="1650" d="M135 0l287 1434h147l-258 -1303h867l260 1303h149l-287 -1434h-514l-65 -336h-141l67 336h-512z" />
<glyph unicode="&#x410;" horiz-adv-x="1523" d="M-75 0l942 1434h149l369 -1434h-152l-96 383h-801l-248 -383h-163zM414 506h694l-194 774z" />
<glyph unicode="&#x411;" horiz-adv-x="1492" d="M135 0l287 1434h1048l-26 -129h-901l-92 -469h469q221 0 333.5 -90.5t112.5 -268.5q0 -225 -171 -351t-474 -126h-586zM307 121h434q221 0 345 91t124 255q0 129 -84 188.5t-266 59.5h-434z" />
<glyph unicode="&#x412;" horiz-adv-x="1544" d="M127 0l287 1434h612q209 0 324.5 -78t115.5 -228q0 -145 -79.5 -246.5t-210.5 -142.5q110 -30 169.5 -104t59.5 -191q0 -215 -163 -329.5t-449 -114.5h-666zM303 125h502q217 0 333.5 82t116.5 235q0 119 -82.5 170.5t-250.5 51.5h-512zM434 788h457q190 0 305 81 t115 233q0 104 -81 155.5t-233 51.5h-458z" />
<glyph unicode="&#x413;" d="M135 0l287 1434h911l-28 -131h-764l-258 -1303h-148z" />
<glyph unicode="&#x414;" horiz-adv-x="1624" d="M-147 -322l92 453h63q143 8 246.5 230.5t194.5 611.5l106 461h967l-260 -1303h217l-93 -453h-141l66 322h-1252l-67 -322h-139zM236 131h876l234 1172h-687l-81 -355q-76 -325 -156 -535t-186 -282z" />
<glyph unicode="&#x415;" horiz-adv-x="1349" d="M135 0l287 1434h983l-27 -131h-833l-103 -510h744l-25 -129h-743l-107 -533h862l-26 -131h-1012z" />
<glyph unicode="&#x416;" horiz-adv-x="2070" d="M-61 0l645 743l-316 691h160l285 -643h301l129 643h147l-129 -643h297l541 643h168l-598 -699l344 -735h-172l-309 657h-297l-131 -657h-148l131 657h-297l-569 -657h-182z" />
<glyph unicode="&#x417;" horiz-adv-x="1302" d="M-4 172l78 109q78 -82 191.5 -123t238.5 -41q127 0 239.5 42t182 119.5t69.5 180.5q0 109 -83 166t-240 57h-312l25 123h305q168 0 268.5 75.5t100.5 198.5q0 117 -92.5 179.5t-241.5 62.5q-100 0 -211 -29.5t-217 -89.5l-27 125q242 125 475 125q205 0 338.5 -93 t133.5 -255q0 -127 -84 -222.5t-228 -133.5q115 -35 177.5 -113t62.5 -189q0 -135 -91 -241.5t-240.5 -164.5t-313.5 -58q-145 0 -277.5 48t-226.5 142z" />
<glyph unicode="&#x418;" horiz-adv-x="1687" d="M135 0l287 1434h147l-237 -1188l1155 1188h137l-287 -1434h-147l240 1186l-1158 -1186h-137z" />
<glyph unicode="&#x419;" horiz-adv-x="1687" d="M135 0l287 1434h147l-237 -1188l1155 1188h137l-287 -1434h-147l240 1186l-1158 -1186h-137zM749 1757q0 14 4 43h103q-2 -8 -2 -24q0 -70 52 -111t140 -41q96 0 163.5 47t88.5 129h104q-25 -125 -120 -193.5t-240 -68.5q-137 0 -215 58.5t-78 160.5z" />
<glyph unicode="&#x41a;" horiz-adv-x="1437" d="M135 0l287 1434h149l-129 -643h320l614 643h172l-678 -701l418 -733h-162l-378 659h-332l-131 -659h-150z" />
<glyph unicode="&#x41b;" horiz-adv-x="1607" d="M-84 0l37 135q33 -8 63 -8q92 0 161 67.5t129.5 218t121.5 408.5l145 613h971l-287 -1434h-147l260 1303h-692l-113 -480q-76 -313 -149.5 -494.5t-165.5 -262t-219 -80.5q-55 0 -115 14z" />
<glyph unicode="&#x41c;" horiz-adv-x="1972" d="M135 0l287 1434h123l413 -1065l820 1065h133l-287 -1434h-145l227 1137l-741 -955h-72l-383 973l-229 -1155h-146z" />
<glyph unicode="&#x41d;" horiz-adv-x="1681" d="M135 0l287 1434h149l-127 -637h897l127 637h150l-287 -1434h-149l131 659h-897l-132 -659h-149z" />
<glyph unicode="&#x41e;" horiz-adv-x="1761" d="M151 584q0 236 106.5 433t303 313t454.5 116q209 0 358.5 -75t228.5 -209t79 -312q0 -236 -107.5 -433.5t-304 -313t-454.5 -115.5q-209 0 -358.5 74.5t-227.5 209t-78 312.5zM301 592q0 -215 137 -342t391 -127q207 0 366.5 97t246.5 262t87 362q0 213 -137 340 t-391 127q-207 0 -366.5 -97.5t-246.5 -262.5t-87 -359z" />
<glyph unicode="&#x41f;" horiz-adv-x="1689" d="M135 0l287 1434h1204l-287 -1434h-147l258 1303h-907l-260 -1303h-148z" />
<glyph unicode="&#x420;" horiz-adv-x="1464" d="M131 0l287 1434h514q241 0 376.5 -106.5t135.5 -299.5q0 -274 -177.5 -424.5t-488.5 -150.5h-405l-93 -453h-149zM397 586h383q246 0 379 108.5t133 319.5q0 141 -96 215t-277 74h-376z" />
<glyph unicode="&#x421;" horiz-adv-x="1503" d="M151 584q0 238 107.5 434t306 312t459.5 116q172 0 305 -54.5t204 -154.5l-106 -94q-137 168 -416 168q-211 0 -372.5 -97.5t-249.5 -261.5t-88 -360q0 -215 138 -342t394 -127q281 0 455 170l88 -100q-94 -98 -239.5 -151.5t-315.5 -53.5q-209 0 -360.5 74.5t-230.5 209 t-79 312.5z" />
<glyph unicode="&#x422;" horiz-adv-x="1204" d="M176 1303l27 131h1157l-27 -131h-508l-258 -1303h-147l258 1303h-502z" />
<glyph unicode="&#x423;" horiz-adv-x="1394" d="M74 14l55 119q68 -27 123 -27q150 0 272 160l62 74l-363 1094h158l307 -967l705 967h155l-891 -1211q-182 -250 -407 -250q-90 0 -176 41z" />
<glyph unicode="&#x424;" horiz-adv-x="1886" d="M129 616q0 211 109.5 372t314.5 253t479 98l29 144h141l-28 -146q311 -12 482 -147t171 -373q0 -213 -110.5 -372.5t-315.5 -250t-477 -96.5l-29 -147h-139l28 149q-313 10 -484 145.5t-171 370.5zM279 635q0 -193 135 -299.5t395 -114.5l199 993q-227 -8 -391 -80.5 t-251 -200.5t-87 -298zM948 221q228 8 392.5 81t251.5 201t87 300q0 193 -136 297t-394 114z" />
<glyph unicode="&#x425;" horiz-adv-x="1329" d="M-63 0l677 737l-350 697h170l291 -568l522 568h180l-626 -691l375 -743h-172l-320 616l-569 -616h-178z" />
<glyph unicode="&#x426;" horiz-adv-x="1693" d="M135 0l287 1434h147l-258 -1303h867l260 1303h149l-260 -1303h227l-94 -467h-141l65 336h-1249z" />
<glyph unicode="&#x427;" horiz-adv-x="1495" d="M195 854q0 55 12 113l92 467h150l-93 -463q-10 -51 -10 -88q0 -125 85 -190.5t245 -65.5q219 0 469 106l139 701h148l-287 -1434h-148l119 590q-250 -96 -461 -96q-221 0 -340.5 94t-119.5 266z" />
<glyph unicode="&#x428;" horiz-adv-x="2240" d="M135 0l287 1434h147l-258 -1303h656l260 1303h147l-258 -1303h656l258 1303h147l-287 -1434h-1755z" />
<glyph unicode="&#x429;" horiz-adv-x="2281" d="M135 0l287 1434h147l-258 -1303h656l260 1303h147l-258 -1303h656l258 1303h147l-287 -1434h-1755zM1741 0l28 131h371l-90 -453h-141l63 322h-231z" />
<glyph unicode="&#x42a;" horiz-adv-x="1683" d="M176 1303l27 131h594l-103 -512h451q217 0 330.5 -90.5t113.5 -264.5q0 -268 -173 -417.5t-488 -149.5h-568l261 1303h-445zM535 121h415q236 0 361 109.5t125 310.5q0 258 -351 258h-415z" />
<glyph unicode="&#x42b;" horiz-adv-x="2035" d="M135 0l287 1434h147l-102 -512h440q457 0 457 -379q0 -164 -80 -287t-228.5 -189.5t-348.5 -66.5h-572zM307 121h414q225 0 356 109.5t131 297.5q0 141 -80.5 206t-257.5 65h-428zM1542 0l287 1434h149l-287 -1434h-149z" />
<glyph unicode="&#x42c;" horiz-adv-x="1460" d="M135 0l287 1434h147l-102 -512h440q457 0 457 -379q0 -164 -80 -287t-228.5 -189.5t-348.5 -66.5h-572zM307 121h414q225 0 356 109.5t131 297.5q0 141 -80.5 206t-257.5 65h-428z" />
<glyph unicode="&#x42d;" horiz-adv-x="1449" d="M2 199l115 96q137 -172 405 -172q158 0 301.5 70.5t243.5 194.5t137 280h-745l22 125h742v32q0 139 -57.5 250t-163 173.5t-242.5 62.5q-272 0 -473 -172l-78 96q115 102 266.5 156.5t319.5 54.5q174 0 306 -77t204.5 -212t72.5 -307q0 -236 -120.5 -434.5t-323.5 -313 t-432 -114.5q-168 0 -297 53t-203 158z" />
<glyph unicode="&#x42e;" horiz-adv-x="2242" d="M135 0l287 1434h147l-127 -637h285q47 182 169 331.5t295 235.5t363 86q181 0 320 -78t216 -217t77 -319q0 -225 -117 -422t-313.5 -313.5t-423.5 -116.5q-180 0 -318.5 76.5t-215.5 215t-77 318.5q0 43 3 65h-289l-133 -659h-148zM856 604q0 -143 58.5 -251.5t164 -168 t244.5 -59.5q182 0 341 97t254 260t95 347q0 141 -58.5 251t-165 169.5t-245.5 59.5q-180 0 -338.5 -97.5t-254 -260.5t-95.5 -347z" />
<glyph unicode="&#x42f;" horiz-adv-x="1503" d="M33 0l422 467q-121 43 -184.5 139t-63.5 238q0 178 84 311t237.5 206t354.5 73h557l-287 -1434h-147l86 434h-426q-27 0 -72 4l-389 -438h-172zM360 864q0 -147 87.5 -224t252.5 -77h418l148 740h-400q-240 0 -373 -118t-133 -321z" />
<glyph unicode="&#x430;" horiz-adv-x="1411" d="M104 446q0 182 79 328t218 228.5t311 82.5q154 0 258.5 -60t151.5 -173l45 225h145l-215 -1077h-139l35 170q-78 -86 -184.5 -133t-235.5 -47q-137 0 -243.5 55t-166 158.5t-59.5 242.5zM249 453q0 -158 93.5 -246t261.5 -88q133 0 239.5 64.5t167 180t60.5 259.5 q0 158 -93.5 246.5t-261.5 88.5q-133 0 -239.5 -65.5t-167 -181t-60.5 -258.5z" />
<glyph unicode="&#x431;" horiz-adv-x="1361" d="M143 514q0 223 90.5 417.5t251 328t369.5 178.5l500 104l4 -127l-471 -98q-215 -45 -361.5 -187.5t-208.5 -361.5q96 123 224.5 187.5t281.5 64.5q205 0 321 -113.5t116 -312.5q0 -172 -82 -311.5t-225.5 -219t-321.5 -79.5q-231 0 -359.5 137t-128.5 393zM287 469 q0 -172 94 -271.5t258 -99.5q129 0 235.5 62.5t168 170t61.5 238.5q0 154 -85 237t-243 83q-125 0 -238.5 -59.5t-182 -157t-68.5 -203.5z" />
<glyph unicode="&#x432;" horiz-adv-x="1245" d="M98 0l217 1077h469q170 0 258 -61.5t88 -177.5q0 -102 -63 -176t-176 -107q178 -43 178 -219q0 -158 -126 -247t-347 -89h-498zM264 115h340q152 0 237 59t85 166q0 80 -52.5 114.5t-173.5 34.5h-360zM360 598h322q135 0 218 59.5t83 155.5q0 150 -225 150h-324z" />
<glyph unicode="&#x433;" horiz-adv-x="972" d="M98 0l215 1077h764l-26 -129h-621l-186 -948h-146z" />
<glyph unicode="&#x434;" horiz-adv-x="1331" d="M-139 -260l76 387h55q109 6 182.5 164t142.5 432l86 354h793l-188 -950h168l-76 -387h-137l51 260h-965l-51 -260h-137zM197 127h665l164 821h-518l-59 -246q-60 -235 -115 -376.5t-137 -198.5z" />
<glyph unicode="&#x435;" horiz-adv-x="1275" d="M104 449q0 180 77 325.5t213 228t306 82.5q215 0 342 -121.5t127 -334.5q0 -59 -14 -131h-906q-2 -14 -2 -43q0 -164 93.5 -250t277.5 -86q106 0 199.5 35.5t152.5 99.5l66 -104q-76 -76 -189.5 -118t-240.5 -42q-233 0 -367.5 123t-134.5 336zM264 606h768q2 14 2 39 q0 152 -92.5 235t-245.5 83q-162 0 -276.5 -96.5t-155.5 -260.5z" />
<glyph unicode="&#x436;" horiz-adv-x="1693" d="M-74 0l502 559l-252 518h154l223 -475h233l95 475h147l-96 -475h229l414 475h164l-471 -534l280 -543h-170l-237 483h-232l-98 -483h-145l96 483h-227l-426 -483h-183z" />
<glyph unicode="&#x437;" horiz-adv-x="1075" d="M-12 125l61 102q59 -55 151.5 -83.5t200.5 -28.5q104 0 188.5 28.5t131.5 79.5t47 115q0 78 -68.5 121t-189.5 43h-178l16 110h154q139 0 224 51.5t85 135.5q0 78 -67.5 121t-186.5 43q-154 0 -342 -89l-41 121q197 94 395 95q176 0 284 -73t108 -196q0 -94 -68 -163.5 t-188 -100.5q102 -27 155 -85t53 -144q0 -96 -66.5 -174t-184 -122t-263.5 -44q-252 0 -411 137z" />
<glyph unicode="&#x438;" horiz-adv-x="1409" d="M98 0l217 1077h146l-174 -870l884 870h140l-215 -1077h-150l178 870l-884 -870h-142z" />
<glyph unicode="&#x439;" horiz-adv-x="1409" d="M98 0l217 1077h146l-174 -870l884 870h140l-215 -1077h-150l178 870l-884 -870h-142zM578 1444q0 27 6 53h100q-2 -12 -2 -33q0 -66 46 -105.5t126 -39.5q88 0 151.5 48t84.5 130h102q-27 -125 -118 -193.5t-228 -68.5q-125 0 -196.5 56t-71.5 153z" />
<glyph unicode="&#x43a;" horiz-adv-x="1185" d="M98 0l217 1077h146l-96 -473h239l477 473h164l-536 -530l346 -547h-166l-295 479h-254l-96 -479h-146z" />
<glyph unicode="&#x43b;" horiz-adv-x="1294" d="M-96 2l35 125q37 -8 49 -8q104 0 177 138t148 439l95 381h788l-217 -1077h-145l188 948h-514l-66 -266q-63 -246 -122.5 -396.5t-134 -225t-175.5 -74.5q-41 0 -106 16z" />
<glyph unicode="&#x43c;" horiz-adv-x="1615" d="M98 0l215 1077h146l301 -776l620 776h138l-215 -1077h-134l170 852l-579 -721h-66l-291 729l-172 -860h-133z" />
<glyph unicode="&#x43d;" horiz-adv-x="1380" d="M98 0l215 1077h146l-94 -477h675l97 477h145l-215 -1077h-145l94 475h-676l-96 -475h-146z" />
<glyph unicode="&#x43e;" horiz-adv-x="1318" d="M102 446q0 182 80 328t222 228.5t321 82.5q225 0 357 -122.5t132 -331.5q0 -182 -80 -328.5t-222 -229.5t-321 -83q-147 0 -257.5 56t-171 159.5t-60.5 240.5zM247 453q0 -158 93.5 -246t261.5 -88q133 0 239.5 64.5t167 180t60.5 259.5q0 158 -93.5 246.5t-261.5 88.5 q-133 0 -239.5 -65.5t-167 -181t-60.5 -258.5z" />
<glyph unicode="&#x43f;" horiz-adv-x="1378" d="M98 0l215 1077h967l-215 -1077h-145l186 948h-676l-186 -948h-146z" />
<glyph unicode="&#x440;" horiz-adv-x="1413" d="M22 -397l293 1474h140l-35 -172q78 88 184.5 134t235.5 46q137 0 244.5 -55t167 -157.5t59.5 -241.5q0 -182 -79 -328.5t-218.5 -229.5t-313.5 -83q-154 0 -258 60.5t-151 174.5l-123 -622h-146zM344 453q0 -158 93 -246t261 -88q133 0 238.5 64.5t166 179t60.5 260.5 q0 158 -93 246.5t-261 88.5q-133 0 -238.5 -64.5t-166 -180t-60.5 -260.5z" />
<glyph unicode="&#x441;" horiz-adv-x="1179" d="M102 446q0 182 80 328t223 228.5t324 82.5q150 0 257 -54t167 -161l-123 -71q-92 160 -314 159q-133 0 -240.5 -65.5t-168 -180t-60.5 -259.5q0 -158 93.5 -246t265.5 -88q104 0 193 40t147 115l104 -79q-72 -96 -191.5 -150.5t-258.5 -54.5q-152 0 -264.5 56t-173 159.5 t-60.5 240.5z" />
<glyph unicode="&#x442;" horiz-adv-x="968" d="M86 948l25 129h962l-26 -129h-410l-188 -948h-146l189 948h-406z" />
<glyph unicode="&#x443;" horiz-adv-x="1142" d="M-209 -311l78 106q74 -78 190 -78q72 0 129.5 39t118.5 135l76 115l-268 1071h147l223 -917l588 917h150l-787 -1216q-98 -152 -184 -210.5t-205 -58.5q-78 0 -147.5 26t-108.5 71z" />
<glyph unicode="&#x444;" horiz-adv-x="1599" d="M88 442q0 182 94 325.5t265 226.5t397 91l86 435h131l-88 -437q264 -12 399 -124.5t135 -325.5q0 -184 -94 -327.5t-264 -226.5t-393 -89l-78 -387h-131l78 389q-264 10 -400.5 123.5t-136.5 326.5zM227 459q0 -166 105.5 -250t316.5 -94l168 843q-178 -10 -311 -75.5 t-206 -175t-73 -248.5zM780 115q176 10 309.5 75.5t206 175t72.5 250.5q0 166 -102.5 250t-317.5 92z" />
<glyph unicode="&#x445;" horiz-adv-x="1077" d="M-80 0l543 557l-299 520h154l241 -422l406 422h168l-514 -530l317 -547h-156l-256 449l-432 -449h-172z" />
<glyph unicode="&#x446;" horiz-adv-x="1398" d="M98 0l215 1077h146l-189 -950h656l190 950h146l-191 -950h174l-78 -397h-137l53 270h-985z" />
<glyph unicode="&#x447;" horiz-adv-x="1224" d="M121 637q0 35 10 90l70 350h145l-70 -352q-6 -31 -6 -59q0 -90 63.5 -135.5t178.5 -45.5q164 0 369 86l100 506h145l-215 -1077h-145l88 444q-197 -78 -373 -77q-170 0 -265 68.5t-95 201.5z" />
<glyph unicode="&#x448;" horiz-adv-x="1900" d="M98 0l215 1077h146l-187 -950h527l188 950h146l-189 -950h524l189 950h145l-217 -1077h-1487z" />
<glyph unicode="&#x449;" horiz-adv-x="1937" d="M98 0l215 1077h146l-187 -950h527l188 950h146l-189 -950h524l189 950h145l-217 -1077h-1487zM1431 0l27 127h317l-73 -363h-137l47 236h-181z" />
<glyph unicode="&#x44a;" horiz-adv-x="1286" d="M86 948l25 129h483l-76 -379h303q365 1 365 -288q0 -123 -62.5 -216.5t-176 -143.5t-263.5 -50h-451l189 948h-336zM401 111h283q160 0 258 78.5t98 207.5q0 96 -64.5 144.5t-195.5 48.5h-282z" />
<glyph unicode="&#x44b;" horiz-adv-x="1605" d="M98 0l215 1073h146l-74 -375h295q362 1 362 -288q0 -123 -62 -216.5t-176 -143.5t-263 -50h-443zM268 111h273q159 0 257.5 78.5t98.5 207.5q0 96 -64.5 144.5t-195.5 48.5h-275zM1147 0l215 1077h145l-215 -1077h-145z" />
<glyph unicode="&#x44c;" horiz-adv-x="1150" d="M98 0l215 1073h146l-74 -375h303q363 1 363 -288q0 -123 -62.5 -216.5t-176.5 -143.5t-263 -50h-451zM268 111h281q160 0 258 78.5t98 207.5q0 96 -64.5 144.5t-195.5 48.5h-283z" />
<glyph unicode="&#x44d;" horiz-adv-x="1175" d="M-8 156l92 75q51 -59 134 -92t179 -33q123 0 231.5 50.5t185.5 138.5t108 197h-578l25 110h571v21q0 160 -100.5 253t-270.5 93q-100 0 -192 -33t-168 -96l-72 84q84 76 203 118.5t248 42.5q147 0 260 -56t174 -160.5t61 -241.5q0 -172 -94 -318.5t-252.5 -233.5 t-343.5 -87q-131 0 -236.5 45t-164.5 123z" />
<glyph unicode="&#x44e;" horiz-adv-x="1789" d="M100 0l215 1077h146l-92 -465h237q33 139 118 247t209 167t271 59q219 0 350.5 -122.5t131.5 -329.5q0 -182 -79 -328.5t-220.5 -230.5t-317.5 -84q-145 0 -253.5 56t-168 159.5t-59.5 238.5v35h-246l-96 -479h-146zM735 451q0 -158 90 -245t256 -87q131 0 234.5 64.5 t163 180t59.5 261.5q0 158 -90 245.5t-254 87.5q-131 0 -235.5 -65.5t-164 -181t-59.5 -260.5z" />
<glyph unicode="&#x44f;" horiz-adv-x="1243" d="M10 0l352 385q-211 63 -210 281q0 193 143 302t391 109h457l-213 -1077h-133l71 362h-331h-39l-322 -362h-166zM301 668q0 -199 258 -199h332l94 481h-309q-178 0 -276.5 -73.5t-98.5 -208.5z" />
<glyph unicode="&#x450;" horiz-adv-x="1275" d="M104 449q0 180 77 325.5t213 228t306 82.5q215 0 342 -121.5t127 -334.5q0 -59 -14 -131h-906q-2 -14 -2 -43q0 -164 93.5 -250t277.5 -86q106 0 199.5 35.5t152.5 99.5l66 -104q-76 -76 -189.5 -118t-240.5 -42q-233 0 -367.5 123t-134.5 336zM264 606h768q2 14 2 39 q0 152 -92.5 235t-245.5 83q-162 0 -276.5 -96.5t-155.5 -260.5zM475 1495h193l233 -254h-145z" />
<glyph unicode="&#x451;" horiz-adv-x="1275" d="M104 449q0 180 77 325.5t213 228t306 82.5q215 0 342 -121.5t127 -334.5q0 -59 -14 -131h-906q-2 -14 -2 -43q0 -164 93.5 -250t277.5 -86q106 0 199.5 35.5t152.5 99.5l66 -104q-76 -76 -189.5 -118t-240.5 -42q-233 0 -367.5 123t-134.5 336zM264 606h768q2 14 2 39 q0 152 -92.5 235t-245.5 83q-162 0 -276.5 -96.5t-155.5 -260.5zM522 1366q0 43 27.5 70.5t64.5 27.5t60.5 -22.5t23.5 -59.5q0 -41 -27.5 -67.5t-64.5 -26.5q-35 0 -59.5 22.5t-24.5 55.5zM889 1366q0 43 26.5 70.5t65.5 27.5q35 0 59.5 -22.5t24.5 -59.5 q0 -41 -27.5 -67.5t-66.5 -26.5q-35 0 -58.5 22.5t-23.5 55.5z" />
<glyph unicode="&#x452;" horiz-adv-x="1366" d="M98 0l248 1243h-221l20 107h222l34 170h146l-33 -170h504l-21 -107h-505l-68 -342q145 184 416 184q184 0 284.5 -93t100.5 -259q0 -55 -13 -121l-139 -692q-29 -152 -129 -240t-252 -88q-68 0 -124 17.5t-89 52.5l74 111q53 -55 156 -56q86 0 142 52.5t77 150.5l139 694 q10 57 10 99q0 117 -70.5 179t-207.5 62q-174 0 -288 -95t-151 -281l-116 -578h-146z" />
<glyph unicode="&#x453;" horiz-adv-x="972" d="M98 0l215 1077h764l-26 -129h-621l-186 -948h-146zM596 1239l311 254h199l-359 -254h-151z" />
<glyph unicode="&#x454;" d="M91 450q0 172 94 318.5t252.5 233.5t343.5 87q131 0 236.5 -45t164.5 -123l-92 -75q-51 59 -134 92t-179 33q-123 0 -231.5 -50.5t-185.5 -138.5t-108 -197h578l-25 -110h-571v-21q0 -160 100.5 -253t270.5 -93q100 0 192 33t168 96l72 -84q-84 -76 -203 -118.5 t-248 -42.5q-147 0 -260 56t-174 160.5t-61 241.5z" />
<glyph unicode="&#x455;" horiz-adv-x="1077" d="M27 121l69 115q61 -53 161.5 -86t211.5 -33q154 0 236.5 50t82.5 142q0 51 -33.5 82t-82.5 47.5t-144 36.5q-113 25 -182.5 49.5t-118.5 77.5t-49 148q0 154 127 244.5t340 90.5q104 0 203.5 -27.5t161.5 -72.5l-62 -117q-61 45 -144 69t-171 24q-147 0 -229.5 -53.5 t-82.5 -143.5q0 -53 35 -86t87.5 -49.5t142.5 -34.5q111 -25 179 -48.5t117.5 -76.5t49.5 -143q0 -158 -130 -247t-347 -89q-129 0 -247 36.5t-181 94.5z" />
<glyph unicode="&#x456;" horiz-adv-x="559" d="M100 0l213 1077h146l-213 -1077h-146zM350 1409q0 47 32 79t81 32q43 0 71.5 -28t28.5 -65q0 -49 -32.5 -81.5t-81.5 -32.5q-43 0 -71 28.5t-28 67.5z" />
<glyph unicode="&#x457;" horiz-adv-x="550" d="M96 0l213 1077h146l-213 -1077h-146zM221 1370q0 41 27 69.5t65 28.5q33 0 55.5 -23.5t22.5 -58.5q0 -41 -25.5 -67.5t-64.5 -26.5q-35 0 -57.5 22.5t-22.5 55.5zM494 1370q0 41 26.5 69.5t65.5 28.5q33 0 55.5 -23.5t22.5 -58.5q0 -41 -26 -67.5t-64 -26.5 q-35 0 -57.5 22.5t-22.5 55.5z" />
<glyph unicode="&#x458;" horiz-adv-x="561" d="M-358 -340l67 113q61 -55 162 -56q88 0 141.5 49.5t73.5 155.5l231 1155h146l-232 -1159q-66 -326 -362 -326q-70 0 -128 17.5t-99 50.5zM352 1411q0 47 32 79t81 32q43 0 71.5 -28t28.5 -65q0 -49 -32.5 -81.5t-81.5 -32.5q-43 0 -71 28.5t-28 67.5z" />
<glyph unicode="&#x459;" horiz-adv-x="1886" d="M-96 2l35 125q37 -8 49 -8q104 0 177 138t148 439l95 381h788l-217 -1077h-145l188 948h-514l-66 -266q-63 -246 -122.5 -396.5t-134 -225t-175.5 -74.5q-41 0 -106 16zM833 0l215 1073h146l-74 -375h303q363 1 363 -288q0 -123 -62.5 -216.5t-176.5 -143.5t-263 -50 h-451zM1003 111h281q160 0 258 78.5t98 207.5q0 96 -64.5 144.5t-195.5 48.5h-283z" />
<glyph unicode="&#x45a;" horiz-adv-x="1927" d="M98 0l215 1077h146l-86 -434h657l86 434h144l-84 -434h297q174 0 265 -71.5t91 -206.5q0 -166 -131 -265.5t-355 -99.5h-442l105 518h-658l-104 -518h-146zM1067 109h274q158 0 251.5 66.5t93.5 178.5q0 88 -60.5 130t-185.5 42h-289z" />
<glyph unicode="&#x45b;" horiz-adv-x="1366" d="M74 1249l18 92h277l34 179h146l-35 -179h510l-18 -92h-512l-66 -334q150 170 412 170q182 0 283.5 -93t101.5 -257q0 -57 -13 -123l-122 -612h-146l123 614q10 57 10 99q0 117 -70.5 179t-207.5 62q-174 0 -287 -95t-152 -281l-114 -578h-146l250 1249h-276z" />
<glyph unicode="&#x45c;" horiz-adv-x="1185" d="M98 0l217 1077h146l-96 -473h239l477 473h164l-536 -530l346 -547h-166l-295 479h-254l-96 -479h-146zM617 1245l311 254h199l-359 -254h-151z" />
<glyph unicode="&#x45d;" horiz-adv-x="1409" d="M98 0l217 1077h146l-174 -870l884 870h140l-215 -1077h-150l178 870l-884 -870h-142zM547 1499h193l233 -254h-145z" />
<glyph unicode="&#x45e;" horiz-adv-x="1142" d="M-209 -311l78 106q74 -78 190 -78q72 0 129.5 39t118.5 135l76 115l-268 1071h147l223 -917l588 917h150l-787 -1216q-98 -152 -184 -210.5t-205 -58.5q-78 0 -147.5 26t-108.5 71zM412 1444q0 27 6 53h100q-2 -12 -2 -33q0 -66 46 -105.5t126 -39.5q88 0 151.5 48 t84.5 130h102q-27 -125 -118 -193.5t-228 -68.5q-125 0 -196.5 56t-71.5 153z" />
<glyph unicode="&#x45f;" horiz-adv-x="1308" d="M98 0l215 1077h146l-189 -950h604l189 950h145l-215 -1077h-377l-53 -270h-139l53 270h-379z" />
<glyph unicode="&#x462;" horiz-adv-x="1642" d="M162 1153l22 115h387l52 252h149l-51 -252h450l-22 -115h-451l-47 -238h441q221 0 336.5 -91t115.5 -267q0 -20 -4 -70q-25 -231 -189.5 -359t-453.5 -128h-578l230 1153h-387zM494 121h415q234 0 360 108.5t126 296.5q0 137 -86 203t-265 66h-415z" />
<glyph unicode="&#x463;" horiz-adv-x="1218" d="M96 1006l23 110h272l80 404h143l-79 -404h405l-22 -110h-404l-61 -308h303q362 1 362 -288q0 -123 -61.5 -216.5t-175 -143.5t-265.5 -50h-448l201 1006h-273zM336 111h280q160 0 259.5 78.5t99.5 207.5q0 96 -64.5 144.5t-197.5 48.5h-283z" />
<glyph unicode="&#x46a;" horiz-adv-x="1810" d="M-63 0l217 334q139 215 290.5 318.5t325.5 103.5h18l-423 573l20 105h1399l-21 -99l-657 -579h22q172 0 285 -103.5t164 -318.5l80 -334h-156l-69 295q-39 176 -128.5 261t-230.5 85h-80l-127 -641h-137l127 641h-76q-141 0 -265 -85t-234 -261l-187 -295h-157zM530 1315 l418 -559l639 559h-1057z" />
<glyph unicode="&#x46b;" horiz-adv-x="1392" d="M-68 0l156 246q104 168 218 246.5t247 78.5l-305 410l18 96h1069l-16 -96l-471 -410h6q135 0 216 -78.5t118 -246.5l57 -246h-143l-45 211q-29 131 -89.5 193.5t-160.5 62.5h-64l-92 -467h-129l94 467h-55q-102 0 -189 -62.5t-165 -193.5l-129 -211h-146zM403 973 l297 -402l459 402h-756z" />
<glyph unicode="&#x472;" horiz-adv-x="1761" d="M137 584q0 236 106.5 433t303 313t454.5 116q209 0 358.5 -75t228.5 -209t79 -312q0 -236 -107.5 -433.5t-304 -313t-454.5 -115.5q-209 0 -358.5 74.5t-227.5 209t-78 312.5zM287 592q0 -215 137 -342t391 -127q174 0 314.5 69.5t233.5 190.5t130 274h-1204 q-2 -23 -2 -65zM309 778h1204q2 23 2 66q0 213 -137 340t-391 127q-174 0 -314.5 -68.5t-233.5 -189.5t-130 -275z" />
<glyph unicode="&#x473;" horiz-adv-x="1339" d="M100 446q0 182 81 328t226.5 228.5t329.5 82.5q232 0 367 -122.5t135 -331.5q0 -182 -81 -328.5t-225.5 -229.5t-330.5 -83q-154 0 -266.5 56t-174 159.5t-61.5 240.5zM248 453q0 -160 95 -247t271 -87q174 0 299 100t164 268h-829v-34zM264 592h828v31 q0 160 -95.5 247.5t-271.5 87.5q-174 0 -298 -100t-163 -266z" />
<glyph unicode="&#x474;" horiz-adv-x="1527" d="M217 1434h160l258 -1217l512 909q94 170 190.5 248t216.5 78q59 0 127 -18l-34 -146q-47 10 -82 10q-88 0 -161 -63.5t-151 -206.5l-581 -1028h-150z" />
<glyph unicode="&#x475;" horiz-adv-x="1175" d="M125 1073h149l224 -907l376 678q74 131 141.5 187t153.5 56q45 0 107 -16l-41 -133q-45 10 -68 10q-51 0 -91 -41t-103 -151l-428 -756h-144z" />
<glyph unicode="&#x48a;" horiz-adv-x="1724" d="M135 0l287 1434h147l-237 -1188l1155 1188h137l-260 -1303h205l-228 -453h-122l149 322h-178l240 1186l-1158 -1186h-137zM750 1757q0 14 4 43h102q-2 -8 -2 -24q0 -70 52 -111t141 -41q96 0 163.5 47t87.5 129h105q-25 -125 -120 -193.5t-241 -68.5q-137 0 -214.5 58.5 t-77.5 160.5z" />
<glyph unicode="&#x48b;" horiz-adv-x="1449" d="M98 0l217 1077h146l-174 -870l884 870h140l-191 -950h174l-186 -363h-117l113 236h-158l178 870l-884 -870h-142zM575 1499h101q-4 -80 48 -127t144 -47q88 0 150.5 47t75.5 127h106q-20 -121 -113.5 -192.5t-226.5 -71.5q-131 0 -212 72.5t-73 191.5z" />
<glyph unicode="&#x48c;" horiz-adv-x="1513" d="M186 0l230 1153h-226l25 115h223l51 252h150l-51 -252h459l-25 -115h-457l-47 -231h440q230 0 343.5 -94.5t113.5 -284.5q0 -164 -80 -287t-228.5 -189.5t-348.5 -66.5h-572zM360 121h412q225 0 357.5 109.5t132.5 297.5q0 141 -82 206t-258 65h-428z" />
<glyph unicode="&#x48d;" horiz-adv-x="1210" d="M106 829l21 109h221l29 139h145l-26 -139h403l-20 -109h-406l-29 -145h304q364 0 364 -285q0 -119 -61.5 -210t-175 -140t-263.5 -49h-450l166 829h-222zM330 111h280q162 0 259.5 75.5t97.5 202.5q0 94 -64.5 140t-195.5 46h-285z" />
<glyph unicode="&#x48e;" horiz-adv-x="1499" d="M135 0l287 1434h514q242 0 377 -106.5t135 -299.5q0 -182 -81 -311t-230 -197l147 -258l-96 -69l-164 288q-115 -29 -242 -28h-405l-92 -453h-150zM401 586h383q88 0 170 16l-168 295l95 70l188 -330q111 49 169 144.5t58 232.5q0 141 -96 215t-276 74h-377z" />
<glyph unicode="&#x48f;" horiz-adv-x="1427" d="M23 -397l292 1474h140l-35 -172q78 88 184.5 134t235.5 46q137 0 244.5 -55t167 -157.5t59.5 -241.5q0 -168 -66.5 -305.5t-185.5 -223.5l96 -163l-98 -66l-101 170q-117 -53 -256 -53q-154 0 -258 60.5t-151 174.5l-123 -622h-145zM344 453q0 -158 93 -246t261 -88 q101 0 191 39l-123 209l100 67l123 -213q82 70 128 173.5t46 228.5q0 158 -93 246.5t-261 88.5q-133 0 -238.5 -64.5t-166 -180t-60.5 -260.5z" />
<glyph unicode="&#x490;" d="M135 0l287 1434h770l57 295h142l-84 -426h-764l-260 -1303h-148z" />
<glyph unicode="&#x491;" horiz-adv-x="917" d="M98 0l215 1077h572l43 221h137l-70 -350h-561l-190 -948h-146z" />
<glyph unicode="&#x492;" horiz-adv-x="1249" d="M70 608l22 115h248l141 711h912l-29 -131h-764l-115 -580h592l-22 -115h-592l-121 -608h-147l120 608h-245z" />
<glyph unicode="&#x493;" horiz-adv-x="1028" d="M80 424l22 106h129l109 547h764l-27 -129h-620l-82 -418h487l-22 -106h-486l-84 -424h-145l84 424h-129z" />
<glyph unicode="&#x494;" horiz-adv-x="1435" d="M135 0l287 1434h952l-26 -131h-805l-119 -601q225 113 434 113q193 0 311.5 -105.5t118.5 -308.5q0 -182 -91 -340.5t-243.5 -252t-328.5 -93.5q-61 0 -123 13l35 122q41 -8 90 -8q139 0 258 78t187.5 204t68.5 265q0 152 -89 228.5t-235 76.5q-98 0 -206.5 -33.5 t-213.5 -97.5l-112 -563h-150z" />
<glyph unicode="&#x495;" horiz-adv-x="1220" d="M102 0l213 1077h756l-24 -129h-613l-92 -465q188 90 356 90q176 0 280.5 -102t104.5 -291q0 -168 -80.5 -303t-220 -212t-307.5 -77q-55 0 -137 15l37 129q57 -10 104 -11q125 0 229.5 56.5t165 157t60.5 225.5q0 139 -79 216t-210 77q-147 0 -330 -99l-69 -354h-144z " />
<glyph unicode="&#x496;" horiz-adv-x="2162" d="M-61 0l645 743l-316 691h160l285 -643h301l129 643h147l-129 -643h297l541 643h168l-598 -699l344 -735h-172l-309 657h-297l-131 -657h-148l131 657h-297l-569 -657h-182zM1740 0l25 131h281l-88 -453h-142l64 322h-140z" />
<glyph unicode="&#x497;" horiz-adv-x="1779" d="M-74 0l502 559l-252 518h154l223 -475h233l95 475h147l-96 -475h229l414 475h164l-471 -534l280 -543h-170l-237 483h-232l-98 -483h-145l96 483h-227l-426 -483h-183zM1379 0l24 125h271l-74 -363h-133l47 238h-135z" />
<glyph unicode="&#x498;" horiz-adv-x="1302" d="M-4 172l78 109q78 -82 191.5 -123t238.5 -41q127 0 239.5 42t182 119.5t69.5 180.5q0 109 -83 166t-240 57h-312l25 123h305q168 0 268.5 75.5t100.5 198.5q0 117 -92.5 179.5t-241.5 62.5q-100 0 -211 -29.5t-217 -89.5l-27 125q242 125 475 125q205 0 338.5 -93 t133.5 -255q0 -127 -84 -222.5t-228 -133.5q115 -35 177.5 -113t62.5 -189q0 -135 -91 -241.5t-240.5 -164.5t-313.5 -58q-145 0 -277.5 48t-226.5 142zM381 -322l71 361h142l-72 -361h-141z" />
<glyph unicode="&#x499;" horiz-adv-x="1075" d="M-12 125l61 102q59 -55 151.5 -83.5t200.5 -28.5q104 0 188.5 28.5t131.5 79.5t47 115q0 78 -68.5 121t-189.5 43h-178l16 110h154q139 0 224 51.5t85 135.5q0 78 -67.5 121t-186.5 43q-154 0 -342 -89l-41 121q197 94 395 95q176 0 284 -73t108 -196q0 -94 -68 -163.5 t-188 -100.5q102 -27 155 -85t53 -144q0 -96 -66.5 -174t-184 -122t-263.5 -44q-252 0 -411 137zM285 -236l53 271h138l-54 -271h-137z" />
<glyph unicode="&#x49a;" horiz-adv-x="1546" d="M135 0l287 1434h149l-129 -643h320l614 643h172l-678 -701l418 -733h-162l-378 659h-332l-131 -659h-150zM1126 0l25 131h281l-88 -453h-142l64 322h-140z" />
<glyph unicode="&#x49b;" horiz-adv-x="1284" d="M98 0l217 1077h146l-96 -473h239l477 473h164l-536 -530l346 -547h-166l-295 479h-254l-96 -479h-146zM889 0l24 125h271l-74 -363h-133l47 238h-135z" />
<glyph unicode="&#x49c;" horiz-adv-x="1486" d="M135 0l287 1434h147l-129 -643h176l62 311h117l-62 -311h119l565 643h170l-626 -701l374 -733h-174l-336 657h-118l-62 -307h-117l62 307h-176l-131 -657h-148z" />
<glyph unicode="&#x49d;" horiz-adv-x="1200" d="M98 0l217 1077h144l-94 -473h127l45 221h106l-45 -221h72l413 473h164l-471 -534l279 -543h-168l-232 481h-82l-43 -219h-106l43 219h-127l-96 -481h-146z" />
<glyph unicode="&#x49e;" horiz-adv-x="1513" d="M158 1130l22 111h279l39 193h149l-39 -193h305l-22 -111h-305l-68 -339h320l614 643h172l-678 -701l418 -733h-162l-379 659h-331l-132 -659h-149l225 1130h-278z" />
<glyph unicode="&#x49f;" horiz-adv-x="1187" d="M98 0l248 1243h-205l23 109h205l32 168h146l-33 -170h324l-21 -107h-325l-127 -639h241l477 473h164l-538 -530l348 -547h-168l-297 481h-252l-96 -481h-146z" />
<glyph unicode="&#x4a0;" horiz-adv-x="1703" d="M176 1303l27 131h594l-129 -643h401l567 643h168l-628 -701l376 -733h-174l-334 657h-403l-131 -657h-150l261 1303h-445z" />
<glyph unicode="&#x4a1;" horiz-adv-x="1314" d="M86 950l25 127h479l-96 -473h241l477 473h162l-536 -530l346 -547h-166l-295 479h-254l-96 -479h-146l193 950h-334z" />
<glyph unicode="&#x4a2;" horiz-adv-x="1722" d="M135 0l287 1434h149l-127 -637h897l127 637h150l-287 -1434h-149l131 659h-897l-132 -659h-149zM1182 0l28 131h371l-90 -453h-141l63 322h-231z" />
<glyph unicode="&#x4a3;" horiz-adv-x="1419" d="M98 0l215 1077h146l-94 -477h675l97 477h145l-215 -1077h-145l94 475h-676l-96 -475h-146zM921 0l27 127h317l-73 -363h-137l47 236h-181z" />
<glyph unicode="&#x4a4;" horiz-adv-x="2224" d="M135 0l287 1434h149l-127 -637h897l127 637h150l-287 -1434h-149l131 659h-897l-132 -659h-149zM1182 0l287 1434h911l-28 -131h-764l-258 -1303h-148z" />
<glyph unicode="&#x4a5;" horiz-adv-x="1794" d="M98 0l215 1077h146l-94 -477h675l97 477h145l-215 -1077h-145l94 475h-676l-96 -475h-146zM921 0l215 1077h764l-26 -129h-621l-186 -948h-146z" />
<glyph unicode="&#x4a8;" horiz-adv-x="2004" d="M158 637q0 246 139 464t381 353l115 -76q-225 -117 -354.5 -314.5t-129.5 -420.5q0 -162 70 -284.5t199 -191.5t299 -69q96 0 178 21q-137 98 -215 254.5t-78 351.5q0 205 84 373t230.5 265t324.5 97q145 0 255.5 -65.5t171 -185t60.5 -277.5q0 -248 -144.5 -467 t-379.5 -350q80 -19 172 -19q121 0 246 33l-2 -115q-131 -35 -264 -34q-174 0 -320 61q-166 -59 -342 -59q-207 0 -364.5 81.5t-244.5 230t-87 343.5zM915 725q0 -190 80 -333.5t224 -221.5q147 66 263.5 180.5t182.5 264t66 311.5q0 186 -88.5 291.5t-245.5 105.5 q-137 0 -247 -78t-172.5 -214t-62.5 -306z" />
<glyph unicode="&#x4a9;" horiz-adv-x="1667" d="M111 522q0 188 105.5 342t289.5 232l108 -72q-168 -72 -263 -205t-95 -293q0 -127 57.5 -224t161 -151.5t238.5 -54.5q55 0 121 10q-109 80 -168.5 200t-59.5 265q0 152 63.5 273t177.5 188.5t255 67.5q121 0 215 -50.5t146.5 -142.5t52.5 -211q0 -176 -106.5 -334.5 t-281.5 -259.5q66 -16 158 -16q106 0 205 23l-8 -111q-100 -23 -213 -23q-162 0 -297 54q-147 -49 -291 -49q-168 0 -298 68.5t-201.5 191t-71.5 282.5zM737 569q0 -143 65.5 -250.5t184.5 -166.5q174 70 284.5 214t110.5 314q0 137 -77.5 220t-208.5 83q-102 0 -184.5 -52 t-128.5 -146.5t-46 -215.5z" />
<glyph unicode="&#x4aa;" horiz-adv-x="1503" d="M151 584q0 238 107.5 434t306 312t459.5 116q172 0 305 -54.5t204 -154.5l-106 -94q-137 168 -416 168q-211 0 -372.5 -97.5t-249.5 -261.5t-88 -360q0 -215 138 -342t394 -127q281 0 455 170l88 -100q-94 -98 -239.5 -151.5t-315.5 -53.5q-209 0 -360.5 74.5t-230.5 209 t-79 312.5zM619 -322l71 361h142l-72 -361h-141z" />
<glyph unicode="&#x4ab;" horiz-adv-x="1179" d="M102 446q0 182 80 328t223 228.5t324 82.5q150 0 257 -54t167 -161l-123 -71q-92 160 -314 159q-133 0 -240.5 -65.5t-168 -180t-60.5 -259.5q0 -158 93.5 -246t265.5 -88q104 0 193 40t147 115l104 -79q-72 -96 -191.5 -150.5t-258.5 -54.5q-152 0 -264.5 56t-173 159.5 t-60.5 240.5zM473 -238l53 271h138l-54 -271h-137z" />
<glyph unicode="&#x4ac;" horiz-adv-x="1204" d="M176 1303l27 131h1157l-27 -131h-508l-258 -1303h-147l258 1303h-502zM420 0l28 131h371l-90 -453h-141l63 322h-231z" />
<glyph unicode="&#x4ad;" horiz-adv-x="968" d="M86 948l25 129h962l-26 -129h-410l-164 -821h176l-74 -363h-137l47 236h-182l189 948h-406z" />
<glyph unicode="&#x4ae;" horiz-adv-x="1335" d="M199 1434h149l332 -807l651 807h164l-764 -949l-98 -485h-150l101 496z" />
<glyph unicode="&#x4af;" horiz-adv-x="1144" d="M127 1077h145l222 -921l589 921h150l-694 -1083l-80 -393h-146l80 391z" />
<glyph unicode="&#x4b0;" horiz-adv-x="1335" d="M199 1434h149l332 -807l651 807h164l-764 -949l-98 -485h-150l101 496zM210 434l22 106h865l-22 -106h-865z" />
<glyph unicode="&#x4b1;" horiz-adv-x="1144" d="M34 -43l22 106h847l-22 -106h-847zM127 1077h145l222 -921l589 921h150l-694 -1083l-80 -393h-146l80 391z" />
<glyph unicode="&#x4b2;" horiz-adv-x="1421" d="M-63 0l677 737l-350 697h170l291 -568l522 568h180l-626 -691l375 -743h-172l-320 616l-569 -616h-178zM1003 0l25 131h281l-88 -453h-142l64 322h-140z" />
<glyph unicode="&#x4b3;" d="M-80 0l543 557l-299 520h154l241 -422l406 422h168l-514 -530l317 -547h-156l-256 449l-432 -449h-172zM781 0l24 125h271l-74 -363h-133l47 238h-135z" />
<glyph unicode="&#x4b4;" horiz-adv-x="1980" d="M176 1303l27 131h1112l-27 -131h-457l-233 -1174h866l260 1303h150l-260 -1303h227l-94 -467h-141l65 336h-1249v2l258 1303h-504z" />
<glyph unicode="&#x4b5;" horiz-adv-x="1550" d="M86 948l27 129h901l-25 -129h-350l-164 -821h606l191 950h145l-190 -950h159l-73 -363h-137l47 236h-918l189 948h-408z" />
<glyph unicode="&#x4b6;" horiz-adv-x="1536" d="M195 854q0 55 12 113l92 467h150l-93 -463q-10 -51 -10 -88q0 -125 85 -190.5t245 -65.5q219 0 469 106l139 701h148l-287 -1434h-148l119 590q-250 -96 -461 -96q-221 0 -340.5 94t-119.5 266zM998 0l28 131h371l-90 -453h-141l63 322h-231z" />
<glyph unicode="&#x4b7;" horiz-adv-x="1263" d="M121 637q0 35 10 90l70 350h145l-70 -352q-6 -31 -6 -59q0 -90 63.5 -135.5t178.5 -45.5q164 0 369 86l100 506h145l-215 -1077h-145l88 444q-197 -78 -373 -77q-170 0 -265 68.5t-95 201.5zM766 0l27 127h317l-73 -363h-137l47 236h-181z" />
<glyph unicode="&#x4b8;" horiz-adv-x="1495" d="M195 852q0 53 12 115l92 467h150l-93 -463q-10 -51 -10 -88q0 -115 74 -180.5t213 -73.5l61 309h117l-61 -307q182 12 395 102l139 701h148l-287 -1434h-148l119 590q-211 -82 -395 -94l-62 -308h-114l61 308q-199 10 -305 103t-106 253z" />
<glyph unicode="&#x4b9;" horiz-adv-x="1224" d="M121 637q0 35 10 90l70 350h145l-70 -352q-6 -31 -6 -59q0 -90 63.5 -135.5t178.5 -45.5l47 236h109l-45 -225q115 16 258 75l100 506h145l-215 -1077h-145l88 444q-123 -49 -256 -69l-45 -223h-109l43 215h-6q-170 0 -265 68.5t-95 201.5z" />
<glyph unicode="&#x4ba;" horiz-adv-x="1497" d="M135 0l287 1434h147l-118 -590q246 96 462 96q222 0 341.5 -94t119.5 -266q0 -53 -12 -113l-94 -467h-150l92 463q10 51 11 88q0 125 -85 190.5t-243 65.5q-221 0 -471 -107l-139 -700h-148z" />
<glyph unicode="&#x4bb;" horiz-adv-x="1366" d="M100 0l303 1520h146l-121 -605q150 170 412 170q182 0 283.5 -93t101.5 -257q0 -57 -13 -123l-123 -612h-145l123 614q10 57 10 99q0 117 -70.5 179t-207.5 62q-174 0 -287 -95t-152 -281l-114 -578h-146z" />
<glyph unicode="&#x4bc;" horiz-adv-x="2000" d="M145 889q0 139 111 282l137 -43q-49 -57 -74.5 -113.5t-25.5 -103.5q0 -66 43 -104.5t125 -38.5h37q37 190 157.5 345t300 244t381.5 89q186 0 325.5 -75t215.5 -209t76 -306q0 -106 -31 -223l-1290 6v-10q0 -152 63.5 -266.5t179 -178t271.5 -63.5q125 0 249 45t234 129 l78 -109q-131 -98 -275.5 -148t-295.5 -50q-195 0 -343.5 78.5t-229.5 221t-81 330.5v21h-53q-133 0 -209 68.5t-76 181.5zM647 768h1157q6 43 6 82q0 135 -60 240.5t-171 165t-256 59.5q-162 0 -304 -72t-240.5 -196.5t-131.5 -278.5z" />
<glyph unicode="&#x4bd;" horiz-adv-x="1546" d="M80 672q0 100 82 215l119 -31q-68 -80 -68 -147q0 -47 36 -75t105 -28h17q31 141 115.5 250t210.5 169t276 60q223 0 353 -121.5t130 -334.5q0 -70 -12 -131h-940q-2 -14 -2 -43q0 -164 97 -250t288 -86q113 0 208 35.5t156 99.5l68 -104q-78 -76 -194.5 -118t-250.5 -42 q-242 0 -381 123t-139 336q0 33 2 49h-39q-117 0 -177 47t-60 127zM520 606h795q2 14 2 41q0 150 -96.5 233t-253.5 83q-168 0 -287 -96.5t-160 -260.5z" />
<glyph unicode="&#x4be;" horiz-adv-x="2000" d="M145 889q0 139 111 282l137 -43q-49 -57 -74.5 -113.5t-25.5 -103.5q0 -66 43 -104.5t125 -38.5h37q37 190 157.5 345t300 244t381.5 89q186 0 325.5 -75t215.5 -209t76 -306q0 -106 -31 -223l-1290 6v-10q0 -152 63.5 -266.5t179 -178t271.5 -63.5q125 0 249 45t234 129 l78 -109q-131 -98 -275.5 -148t-295.5 -50q-195 0 -343.5 78.5t-229.5 221t-81 330.5v21h-53q-133 0 -209 68.5t-76 181.5zM647 768h1157q6 43 6 82q0 135 -60 240.5t-171 165t-256 59.5q-162 0 -304 -72t-240.5 -196.5t-131.5 -278.5zM963 -322l71 361h142l-72 -361h-141z " />
<glyph unicode="&#x4bf;" horiz-adv-x="1546" d="M80 672q0 100 82 215l119 -31q-68 -80 -68 -147q0 -47 36 -75t105 -28h17q31 141 115.5 250t210.5 169t276 60q223 0 353 -121.5t130 -334.5q0 -70 -12 -131h-940q-2 -14 -2 -43q0 -164 97 -250t288 -86q113 0 208 35.5t156 99.5l68 -104q-78 -76 -194.5 -118t-250.5 -42 q-242 0 -381 123t-139 336q0 33 2 49h-39q-117 0 -177 47t-60 127zM520 606h795q2 14 2 41q0 150 -96.5 233t-253.5 83q-168 0 -287 -96.5t-160 -260.5zM711 -236l53 271h138l-54 -271h-137z" />
<glyph unicode="&#x4c0;" horiz-adv-x="634" d="M135 0l287 1434h149l-286 -1434h-150z" />
<glyph unicode="&#x4c1;" horiz-adv-x="2070" d="M-61 0l645 743l-316 691h160l285 -643h301l129 643h147l-129 -643h297l541 643h168l-598 -699l344 -735h-172l-309 657h-297l-131 -657h-148l131 657h-297l-569 -657h-182zM950 1757q0 14 4 43h103q-2 -8 -2 -24q0 -70 52 -111t140 -41q96 0 163.5 47t88.5 129h104 q-25 -125 -120 -193.5t-240 -68.5q-137 0 -215 58.5t-78 160.5z" />
<glyph unicode="&#x4c2;" horiz-adv-x="1693" d="M-74 0l502 559l-252 518h154l223 -475h233l95 475h147l-96 -475h229l414 475h164l-471 -534l280 -543h-170l-237 483h-232l-98 -483h-145l96 483h-227l-426 -483h-183zM730 1444q0 27 6 53h100q-2 -12 -2 -33q0 -66 46 -105.5t126 -39.5q88 0 151.5 48t84.5 130h102 q-27 -125 -118 -193.5t-228 -68.5q-125 0 -196.5 56t-71.5 153z" />
<glyph unicode="&#x4c3;" horiz-adv-x="1437" d="M135 0l287 1434h149l-129 -643h320l614 643h172l-676 -701q385 -446 385 -749q0 -115 -48 -204t-134 -139.5t-196 -50.5q-111 0 -220 62l64 117q78 -47 151 -48q98 0 159 70t61 184q0 139 -96.5 323.5t-252.5 360.5h-329l-131 -659h-150z" />
<glyph unicode="&#x4c4;" horiz-adv-x="1183" d="M100 0l213 1077h146l-94 -477h233l481 477h166l-536 -528q152 -152 229.5 -300.5t77.5 -279.5q0 -111 -47 -196.5t-132 -133t-194 -47.5q-111 0 -219 58l61 110q80 -43 160 -43q100 0 161.5 65.5t61.5 178.5t-73.5 249t-208.5 275h-244l-96 -485h-146z" />
<glyph unicode="&#x4c6;" horiz-adv-x="1331" d="M-96 2l35 125q37 -8 49 -8q104 0 177 138t148 439l95 381h788l-192 -950h178l-187 -363h-116l112 236h-157l188 948h-514l-66 -266q-63 -246 -122.5 -396.5t-134 -225t-175.5 -74.5q-41 0 -106 16z" />
<glyph unicode="&#x4c7;" horiz-adv-x="1671" d="M135 0l287 1434h147l-129 -648h889l129 648h150l-310 -1547q-29 -141 -131 -218t-231 -77q-61 0 -119.5 18.5t-103.5 55.5l63 103q63 -51 148 -52q82 0 146.5 50.5t82.5 140.5l150 745h-889l-131 -653h-148z" />
<glyph unicode="&#x4c8;" horiz-adv-x="1396" d="M100 0l213 1077h146l-94 -477h692l94 477h145l-233 -1165q-29 -147 -126 -233.5t-245 -86.5q-69 0 -126.5 17.5t-90.5 52.5l72 111q53 -55 149 -56q88 0 145.5 52.5t78.5 150.5l110 555h-690l-94 -475h-146z" />
<glyph unicode="&#x4c9;" horiz-adv-x="1716" d="M135 0l287 1434h149l-127 -637h897l127 637h150l-260 -1303h203l-228 -453h-123l150 322h-178l131 659h-897l-131 -659h-150z" />
<glyph unicode="&#x4ca;" horiz-adv-x="1419" d="M98 0l215 1077h146l-94 -477h675l97 477h145l-190 -950h178l-187 -363h-116l112 236h-157l94 475h-676l-96 -475h-146z" />
<glyph unicode="&#x4cb;" horiz-adv-x="1488" d="M195 877q0 61 10 106l90 451h149l-90 -447q-8 -39 -8 -82q0 -123 84 -187.5t244 -64.5q209 0 467 105l135 676h149l-260 -1303l-26 -131h-256l-62 -322h-141l92 453h244l96 485q-252 -96 -455 -96q-223 0 -342.5 93.5t-119.5 263.5z" />
<glyph unicode="&#x4cc;" horiz-adv-x="1220" d="M121 653q0 37 10 92l66 332h145l-63 -325q-6 -31 -7 -60q0 -90 65.5 -136t184.5 -46q168 0 357 78l98 489h145l-215 -1077h-194l-47 -236h-138l70 357h188l70 350q-205 -82 -383 -82q-168 0 -260 66.5t-92 197.5z" />
<glyph unicode="&#x4cd;" horiz-adv-x="2009" d="M135 0l287 1434h123l413 -1065l820 1065h133l-260 -1303h207l-228 -453h-123l150 322h-178l227 1137l-741 -955h-72l-383 973l-229 -1155h-146z" />
<glyph unicode="&#x4ce;" horiz-adv-x="1669" d="M98 0l215 1077h146l301 -776l620 776h138l-191 -950h191l-187 -363h-117l113 236h-158l170 852l-579 -721h-66l-291 729l-172 -860h-133z" />
<glyph unicode="&#x4cf;" horiz-adv-x="561" d="M98 0l303 1520h146l-303 -1520h-146z" />
<glyph unicode="&#x4d0;" horiz-adv-x="1523" d="M-75 0l942 1434h149l369 -1434h-152l-96 383h-801l-248 -383h-163zM414 506h694l-194 774zM672 1757q0 14 4 43h103q-2 -8 -2 -24q0 -70 52 -111t140 -41q96 0 163.5 47t88.5 129h104q-25 -125 -120 -193.5t-240 -68.5q-137 0 -215 58.5t-78 160.5z" />
<glyph unicode="&#x4d1;" horiz-adv-x="1411" d="M104 446q0 182 79 328t218 228.5t311 82.5q154 0 258.5 -60t151.5 -173l45 225h145l-215 -1077h-139l35 170q-78 -86 -184.5 -133t-235.5 -47q-137 0 -243.5 55t-166 158.5t-59.5 242.5zM249 453q0 -158 93.5 -246t261.5 -88q133 0 239.5 64.5t167 180t60.5 259.5 q0 158 -93.5 246.5t-261.5 88.5q-133 0 -239.5 -65.5t-167 -181t-60.5 -258.5zM572 1444q0 27 6 53h100q-2 -12 -2 -33q0 -66 46 -105.5t126 -39.5q88 0 151.5 48t84.5 130h102q-27 -125 -118 -193.5t-228 -68.5q-125 0 -196.5 56t-71.5 153z" />
<glyph unicode="&#x4d2;" horiz-adv-x="1523" d="M-75 0l942 1434h149l369 -1434h-152l-96 383h-801l-248 -383h-163zM414 506h694l-194 774zM719 1675q0 43 27.5 71t64.5 28t60.5 -22.5t23.5 -59.5q0 -41 -28 -68t-64 -27q-35 0 -59.5 22.5t-24.5 55.5zM1085 1675q0 43 26.5 71t65.5 28q35 0 59.5 -22.5t24.5 -59.5 q0 -41 -27.5 -68t-66.5 -27q-35 0 -58.5 22.5t-23.5 55.5z" />
<glyph unicode="&#x4d3;" horiz-adv-x="1411" d="M104 446q0 182 79 328t218 228.5t311 82.5q154 0 258.5 -60t151.5 -173l45 225h145l-215 -1077h-139l35 170q-78 -86 -184.5 -133t-235.5 -47q-137 0 -243.5 55t-166 158.5t-59.5 242.5zM249 453q0 -158 93.5 -246t261.5 -88q133 0 239.5 64.5t167 180t60.5 259.5 q0 158 -93.5 246.5t-261.5 88.5q-133 0 -239.5 -65.5t-167 -181t-60.5 -258.5zM588 1370q0 43 27.5 70.5t64.5 27.5t60.5 -22.5t23.5 -59.5q0 -41 -27.5 -67.5t-64.5 -26.5q-35 0 -59.5 22.5t-24.5 55.5zM955 1370q0 43 26.5 70.5t65.5 27.5q35 0 59.5 -22.5t24.5 -59.5 q0 -41 -27.5 -67.5t-66.5 -26.5q-35 0 -58.5 22.5t-23.5 55.5z" />
<glyph unicode="&#x4d4;" horiz-adv-x="2103" d="M-88 0l1153 1434h1093l-26 -131h-834l-102 -510h745l-29 -129h-741l-106 -533h862l-27 -131h-1010l76 383h-577l-307 -383h-170zM487 506h504l160 799h-25z" />
<glyph unicode="&#x4d5;" horiz-adv-x="2039" d="M64 274q0 156 117.5 245t338.5 89h361l10 56q8 41 8 84q0 104 -66.5 157t-197.5 53q-102 0 -200.5 -33.5t-170.5 -90.5l-49 114q86 66 205 101.5t235 35.5q152 0 243 -54t120 -154q82 100 198.5 154t245.5 54q215 0 344 -121.5t129 -334.5q0 -68 -16 -129h-911 q-2 -14 -2 -45q0 -168 94 -252t278 -84q221 0 351 135l67 -104q-78 -76 -191.5 -118t-238.5 -42q-162 0 -280.5 65.5t-172.5 194.5q-70 -133 -193.5 -196.5t-272.5 -63.5q-180 0 -281.5 76.5t-101.5 207.5zM207 283q0 -86 64.5 -132.5t189.5 -46.5q141 0 245.5 80t133.5 228 l18 88h-348q-143 0 -223 -57.5t-80 -159.5zM1024 608h770q12 168 -82 261.5t-256 93.5q-160 0 -275.5 -96.5t-156.5 -258.5z" />
<glyph unicode="&#x4d6;" horiz-adv-x="1349" d="M135 0l287 1434h983l-27 -131h-833l-103 -510h744l-25 -129h-743l-107 -533h862l-26 -131h-1012zM645 1757q0 14 4 43h103q-2 -8 -2 -24q0 -70 52 -111t140 -41q96 0 163.5 47t88.5 129h104q-25 -125 -120 -193.5t-240 -68.5q-137 0 -215 58.5t-78 160.5z" />
<glyph unicode="&#x4d7;" horiz-adv-x="1275" d="M104 449q0 180 77 325.5t213 228t306 82.5q215 0 342 -121.5t127 -334.5q0 -59 -14 -131h-906q-2 -14 -2 -43q0 -164 93.5 -250t277.5 -86q106 0 199.5 35.5t152.5 99.5l66 -104q-76 -76 -189.5 -118t-240.5 -42q-233 0 -367.5 123t-134.5 336zM264 606h768q2 14 2 39 q0 152 -92.5 235t-245.5 83q-162 0 -276.5 -96.5t-155.5 -260.5zM506 1442q0 27 6 53h100q-2 -12 -2 -33q0 -66 46 -105.5t126 -39.5q88 0 151.5 48t84.5 130h102q-27 -125 -118 -193.5t-228 -68.5q-125 0 -196.5 56t-71.5 153z" />
<glyph unicode="&#x4d8;" horiz-adv-x="1677" d="M107 578q0 68 25 190h1308q4 49 4 76q0 215 -132 341t-380 126q-141 0 -264 -43t-209 -121l-76 110q98 90 246 139.5t316 49.5q204 0 350.5 -75t223.5 -209t77 -312q0 -236 -104.5 -433.5t-296 -313t-441.5 -115.5q-199 0 -345 74.5t-224 207.5t-78 308zM254 586 q0 -217 136.5 -342t377.5 -125q162 0 296.5 67.5t225.5 185t130 267.5h-1164z" />
<glyph unicode="&#x4d9;" horiz-adv-x="1275" d="M100 449q0 59 15 131h905q2 14 2 43q0 164 -93 249.5t-278 85.5q-106 0 -199.5 -35.5t-152.5 -99.5l-66 105q76 76 190 117.5t241 41.5q233 0 367 -122.5t134 -335.5q0 -180 -76.5 -325.5t-213 -228.5t-306.5 -83q-215 0 -342 122t-127 335zM236 432q0 -152 92 -234.5 t245 -82.5q162 0 277 96t156 260h-768q-2 -14 -2 -39z" />
<glyph unicode="&#x4da;" horiz-adv-x="1677" d="M107 578q0 68 25 190h1308q4 49 4 76q0 215 -132 341t-380 126q-141 0 -264 -43t-209 -121l-76 110q98 90 246 139.5t316 49.5q204 0 350.5 -75t223.5 -209t77 -312q0 -236 -104.5 -433.5t-296 -313t-441.5 -115.5q-199 0 -345 74.5t-224 207.5t-78 308zM254 586 q0 -217 136.5 -342t377.5 -125q162 0 296.5 67.5t225.5 185t130 267.5h-1164zM799 1675q0 43 27.5 71t64.5 28t60.5 -22.5t23.5 -59.5q0 -41 -28 -68t-64 -27q-35 0 -59.5 22.5t-24.5 55.5zM1165 1675q0 43 26.5 71t65.5 28q35 0 59.5 -22.5t24.5 -59.5q0 -41 -27.5 -68 t-66.5 -27q-35 0 -58.5 22.5t-23.5 55.5z" />
<glyph unicode="&#x4db;" horiz-adv-x="1275" d="M100 449q0 59 15 131h905q2 14 2 43q0 164 -93 249.5t-278 85.5q-106 0 -199.5 -35.5t-152.5 -99.5l-66 105q76 76 190 117.5t241 41.5q233 0 367 -122.5t134 -335.5q0 -180 -76.5 -325.5t-213 -228.5t-306.5 -83q-215 0 -342 122t-127 335zM236 432q0 -152 92 -234.5 t245 -82.5q162 0 277 96t156 260h-768q-2 -14 -2 -39zM534 1370q0 43 27.5 70.5t64.5 27.5t60.5 -22.5t23.5 -59.5q0 -41 -27.5 -67.5t-64.5 -26.5q-35 0 -59.5 22.5t-24.5 55.5zM901 1370q0 43 26.5 70.5t65.5 27.5q35 0 59.5 -22.5t24.5 -59.5q0 -41 -27.5 -67.5 t-66.5 -26.5q-35 0 -58.5 22.5t-23.5 55.5z" />
<glyph unicode="&#x4dc;" horiz-adv-x="2070" d="M-61 0l645 743l-316 691h160l285 -643h301l129 643h147l-129 -643h297l541 643h168l-598 -699l344 -735h-172l-309 657h-297l-131 -657h-148l131 657h-297l-569 -657h-182zM998 1675q0 43 27.5 71t64.5 28t60.5 -22.5t23.5 -59.5q0 -41 -28 -68t-64 -27q-35 0 -59.5 22.5 t-24.5 55.5zM1364 1675q0 43 26.5 71t65.5 28q35 0 59.5 -22.5t24.5 -59.5q0 -41 -27.5 -68t-66.5 -27q-35 0 -58.5 22.5t-23.5 55.5z" />
<glyph unicode="&#x4dd;" horiz-adv-x="1693" d="M-74 0l502 559l-252 518h154l223 -475h233l95 475h147l-96 -475h229l414 475h164l-471 -534l280 -543h-170l-237 483h-232l-98 -483h-145l96 483h-227l-426 -483h-183zM745 1370q0 43 27.5 70.5t64.5 27.5t60.5 -22.5t23.5 -59.5q0 -41 -27.5 -67.5t-64.5 -26.5 q-35 0 -59.5 22.5t-24.5 55.5zM1112 1370q0 43 26.5 70.5t65.5 27.5q35 0 59.5 -22.5t24.5 -59.5q0 -41 -27.5 -67.5t-66.5 -26.5q-35 0 -58.5 22.5t-23.5 55.5z" />
<glyph unicode="&#x4de;" horiz-adv-x="1302" d="M-4 172l78 109q78 -82 191.5 -123t238.5 -41q127 0 239.5 42t182 119.5t69.5 180.5q0 109 -83 166t-240 57h-312l25 123h305q168 0 268.5 75.5t100.5 198.5q0 117 -92.5 179.5t-241.5 62.5q-100 0 -211 -29.5t-217 -89.5l-27 125q242 125 475 125q205 0 338.5 -93 t133.5 -255q0 -127 -84 -222.5t-228 -133.5q115 -35 177.5 -113t62.5 -189q0 -135 -91 -241.5t-240.5 -164.5t-313.5 -58q-145 0 -277.5 48t-226.5 142zM603 1675q0 43 27.5 71t64.5 28t60.5 -22.5t23.5 -59.5q0 -41 -28 -68t-64 -27q-35 0 -59.5 22.5t-24.5 55.5zM969 1675 q0 43 26.5 71t65.5 28q35 0 59.5 -22.5t24.5 -59.5q0 -41 -27.5 -68t-66.5 -27q-35 0 -58.5 22.5t-23.5 55.5z" />
<glyph unicode="&#x4df;" horiz-adv-x="1075" d="M-12 125l61 102q59 -55 151.5 -83.5t200.5 -28.5q104 0 188.5 28.5t131.5 79.5t47 115q0 78 -68.5 121t-189.5 43h-178l16 110h154q139 0 224 51.5t85 135.5q0 78 -67.5 121t-186.5 43q-154 0 -342 -89l-41 121q197 94 395 95q176 0 284 -73t108 -196q0 -94 -68 -163.5 t-188 -100.5q102 -27 155 -85t53 -144q0 -96 -66.5 -174t-184 -122t-263.5 -44q-252 0 -411 137zM373 1366q0 43 27.5 70.5t64.5 27.5t60.5 -22.5t23.5 -59.5q0 -41 -27.5 -67.5t-64.5 -26.5q-35 0 -59.5 22.5t-24.5 55.5zM740 1366q0 43 26.5 70.5t65.5 27.5 q35 0 59.5 -22.5t24.5 -59.5q0 -41 -27.5 -67.5t-66.5 -26.5q-35 0 -58.5 22.5t-23.5 55.5z" />
<glyph unicode="&#x4e0;" horiz-adv-x="1214" d="M-6 174l84 115q57 -74 167.5 -120t250.5 -46q201 0 314.5 88t113.5 238q0 248 -346 247h-93l21 109l493 498h-729l27 131h922l-21 -105l-506 -512q184 -14 283.5 -108.5t99.5 -251.5q0 -137 -73.5 -244t-206.5 -166t-308 -59q-164 0 -294 50t-199 136z" />
<glyph unicode="&#x4e1;" horiz-adv-x="1054" d="M-193 -219l76 117q78 -86 189.5 -128t232.5 -42q117 0 215 38.5t157.5 117.5t59.5 190q0 123 -83 190.5t-257 67.5h-96l16 102l498 510h-727l27 133h919l-18 -104l-527 -533q195 -12 297.5 -106t102.5 -258q0 -150 -82 -260.5t-218 -168t-294 -57.5q-139 0 -267 47.5 t-221 143.5z" />
<glyph unicode="&#x4e2;" horiz-adv-x="1687" d="M135 0l287 1434h147l-237 -1188l1155 1188h137l-287 -1434h-147l240 1186l-1158 -1186h-137zM741 1628l19 96h633l-21 -96h-631z" />
<glyph unicode="&#x4e3;" horiz-adv-x="1409" d="M98 0l217 1077h146l-174 -870l884 870h140l-215 -1077h-150l178 870l-884 -870h-142zM539 1323l18 96h633l-20 -96h-631z" />
<glyph unicode="&#x4e4;" horiz-adv-x="1687" d="M135 0l287 1434h147l-237 -1188l1155 1188h137l-287 -1434h-147l240 1186l-1158 -1186h-137zM797 1675q0 43 27.5 71t64.5 28t60.5 -22.5t23.5 -59.5q0 -41 -28 -68t-64 -27q-35 0 -59.5 22.5t-24.5 55.5zM1163 1675q0 43 26.5 71t65.5 28q35 0 59.5 -22.5t24.5 -59.5 q0 -41 -27.5 -68t-66.5 -27q-35 0 -58.5 22.5t-23.5 55.5z" />
<glyph unicode="&#x4e5;" horiz-adv-x="1409" d="M98 0l217 1077h146l-174 -870l884 870h140l-215 -1077h-150l178 870l-884 -870h-142zM594 1370q0 43 27.5 70.5t64.5 27.5t60.5 -22.5t23.5 -59.5q0 -41 -27.5 -67.5t-64.5 -26.5q-35 0 -59.5 22.5t-24.5 55.5zM961 1370q0 43 26.5 70.5t65.5 27.5q35 0 59.5 -22.5 t24.5 -59.5q0 -41 -27.5 -67.5t-66.5 -26.5q-35 0 -58.5 22.5t-23.5 55.5z" />
<glyph unicode="&#x4e6;" horiz-adv-x="1761" d="M151 584q0 236 106.5 433t303 313t454.5 116q209 0 358.5 -75t228.5 -209t79 -312q0 -236 -107.5 -433.5t-304 -313t-454.5 -115.5q-209 0 -358.5 74.5t-227.5 209t-78 312.5zM301 592q0 -215 137 -342t391 -127q207 0 366.5 97t246.5 262t87 362q0 213 -137 340 t-391 127q-207 0 -366.5 -97.5t-246.5 -262.5t-87 -359zM838 1675q0 43 27.5 71t64.5 28t60.5 -22.5t23.5 -59.5q0 -41 -28 -68t-64 -27q-35 0 -59.5 22.5t-24.5 55.5zM1204 1675q0 43 26.5 71t65.5 28q35 0 59.5 -22.5t24.5 -59.5q0 -41 -27.5 -68t-66.5 -27 q-35 0 -58.5 22.5t-23.5 55.5z" />
<glyph unicode="&#x4e7;" horiz-adv-x="1318" d="M102 446q0 182 80 328t222 228.5t321 82.5q225 0 357 -122.5t132 -331.5q0 -182 -80 -328.5t-222 -229.5t-321 -83q-147 0 -257.5 56t-171 159.5t-60.5 240.5zM247 453q0 -158 93.5 -246t261.5 -88q133 0 239.5 64.5t167 180t60.5 259.5q0 158 -93.5 246.5t-261.5 88.5 q-133 0 -239.5 -65.5t-167 -181t-60.5 -258.5zM551 1370q0 43 27.5 70.5t64.5 27.5t60.5 -22.5t23.5 -59.5q0 -41 -27.5 -67.5t-64.5 -26.5q-35 0 -59.5 22.5t-24.5 55.5zM918 1370q0 43 26.5 70.5t65.5 27.5q35 0 59.5 -22.5t24.5 -59.5q0 -41 -27.5 -67.5t-66.5 -26.5 q-35 0 -58.5 22.5t-23.5 55.5z" />
<glyph unicode="&#x4e8;" horiz-adv-x="1718" d="M131 584q0 236 106.5 433t303 313t454.5 116q209 0 358.5 -75t228.5 -209t79 -312q0 -236 -107.5 -433.5t-304 -313t-454.5 -115.5q-209 0 -358.5 74.5t-227.5 209t-78 312.5zM281 592q0 -215 137 -342t391 -127q174 0 314.5 69.5t233.5 190.5t130 274h-1204 q-2 -23 -2 -65zM303 778h1204q2 23 2 66q0 213 -137 340t-391 127q-174 0 -314.5 -68.5t-233.5 -189.5t-130 -275z" />
<glyph unicode="&#x4e9;" horiz-adv-x="1339" d="M100 446q0 182 81 328t226.5 228.5t329.5 82.5q232 0 367 -122.5t135 -331.5q0 -182 -81 -328.5t-225.5 -229.5t-330.5 -83q-154 0 -266.5 56t-174 159.5t-61.5 240.5zM248 453q0 -160 95 -247t271 -87q174 0 299 100t164 268h-829v-34zM264 592h828v31 q0 160 -95.5 247.5t-271.5 87.5q-174 0 -298 -100t-163 -266z" />
<glyph unicode="&#x4ea;" horiz-adv-x="1718" d="M131 584q0 236 106.5 433t303 313t454.5 116q209 0 358.5 -75t228.5 -209t79 -312q0 -236 -107.5 -433.5t-304 -313t-454.5 -115.5q-209 0 -358.5 74.5t-227.5 209t-78 312.5zM281 592q0 -215 137 -342t391 -127q174 0 314.5 69.5t233.5 190.5t130 274h-1204 q-2 -23 -2 -65zM303 778h1204q2 23 2 66q0 213 -137 340t-391 127q-174 0 -314.5 -68.5t-233.5 -189.5t-130 -275zM818 1675q0 43 27.5 71t64.5 28t60.5 -22.5t23.5 -59.5q0 -41 -28 -68t-64 -27q-35 0 -59.5 22.5t-24.5 55.5zM1184 1675q0 43 26.5 71t65.5 28 q35 0 59.5 -22.5t24.5 -59.5q0 -41 -27.5 -68t-66.5 -27q-35 0 -58.5 22.5t-23.5 55.5z" />
<glyph unicode="&#x4eb;" horiz-adv-x="1339" d="M100 446q0 182 81 328t226.5 228.5t329.5 82.5q232 0 367 -122.5t135 -331.5q0 -182 -81 -328.5t-225.5 -229.5t-330.5 -83q-154 0 -266.5 56t-174 159.5t-61.5 240.5zM248 453q0 -160 95 -247t271 -87q174 0 299 100t164 268h-829v-34zM264 592h828v31 q0 160 -95.5 247.5t-271.5 87.5q-174 0 -298 -100t-163 -266zM561 1370q0 43 27.5 70.5t64.5 27.5t60.5 -22.5t23.5 -59.5q0 -41 -27.5 -67.5t-64.5 -26.5q-35 0 -59.5 22.5t-24.5 55.5zM928 1370q0 43 26.5 70.5t65.5 27.5q35 0 59.5 -22.5t24.5 -59.5q0 -41 -27.5 -67.5 t-66.5 -26.5q-35 0 -58.5 22.5t-23.5 55.5z" />
<glyph unicode="&#x4ec;" horiz-adv-x="1449" d="M2 199l115 96q137 -172 405 -172q158 0 301.5 70.5t243.5 194.5t137 280h-745l22 125h742v32q0 139 -57.5 250t-163 173.5t-242.5 62.5q-272 0 -473 -172l-78 96q115 102 266.5 156.5t319.5 54.5q174 0 306 -77t204.5 -212t72.5 -307q0 -236 -120.5 -434.5t-323.5 -313 t-432 -114.5q-168 0 -297 53t-203 158zM609 1675q0 43 27.5 71t64.5 28t60.5 -22.5t23.5 -59.5q0 -41 -28 -68t-64 -27q-35 0 -59.5 22.5t-24.5 55.5zM975 1675q0 43 26.5 71t65.5 28q35 0 59.5 -22.5t24.5 -59.5q0 -41 -27.5 -68t-66.5 -27q-35 0 -58.5 22.5t-23.5 55.5z " />
<glyph unicode="&#x4ed;" horiz-adv-x="1175" d="M-8 156l92 75q51 -59 134 -92t179 -33q123 0 231.5 50.5t185.5 138.5t108 197h-578l25 110h571v21q0 160 -100.5 253t-270.5 93q-100 0 -192 -33t-168 -96l-72 84q84 76 203 118.5t248 42.5q147 0 260 -56t174 -160.5t61 -241.5q0 -172 -94 -318.5t-252.5 -233.5 t-343.5 -87q-131 0 -236.5 45t-164.5 123zM432 1364q0 43 27.5 70.5t64.5 27.5t60.5 -22.5t23.5 -59.5q0 -41 -27.5 -67.5t-64.5 -26.5q-35 0 -59.5 22.5t-24.5 55.5zM799 1364q0 43 26.5 70.5t65.5 27.5q35 0 59.5 -22.5t24.5 -59.5q0 -41 -27.5 -67.5t-66.5 -26.5 q-35 0 -58.5 22.5t-23.5 55.5z" />
<glyph unicode="&#x4ee;" horiz-adv-x="1394" d="M74 14l55 119q68 -27 123 -27q150 0 272 160l62 74l-363 1094h158l307 -967l705 967h155l-891 -1211q-182 -250 -407 -250q-90 0 -176 41zM585 1628l19 96h633l-21 -96h-631z" />
<glyph unicode="&#x4ef;" horiz-adv-x="1142" d="M-209 -311l78 106q74 -78 190 -78q72 0 129.5 39t118.5 135l76 115l-268 1071h147l223 -917l588 917h150l-787 -1216q-98 -152 -184 -210.5t-205 -58.5q-78 0 -147.5 26t-108.5 71zM373 1323l18 96h633l-20 -96h-631z" />
<glyph unicode="&#x4f0;" horiz-adv-x="1394" d="M74 14l55 119q68 -27 123 -27q150 0 272 160l62 74l-363 1094h158l307 -967l705 967h155l-891 -1211q-182 -250 -407 -250q-90 0 -176 41zM641 1675q0 43 27.5 71t64.5 28t60.5 -22.5t23.5 -59.5q0 -41 -28 -68t-64 -27q-35 0 -59.5 22.5t-24.5 55.5zM1007 1675 q0 43 26.5 71t65.5 28q35 0 59.5 -22.5t24.5 -59.5q0 -41 -27.5 -68t-66.5 -27q-35 0 -58.5 22.5t-23.5 55.5z" />
<glyph unicode="&#x4f1;" horiz-adv-x="1142" d="M-209 -311l78 106q74 -78 190 -78q72 0 129.5 39t118.5 135l76 115l-268 1071h147l223 -917l588 917h150l-787 -1216q-98 -152 -184 -210.5t-205 -58.5q-78 0 -147.5 26t-108.5 71zM428 1370q0 43 27.5 70.5t64.5 27.5t60.5 -22.5t23.5 -59.5q0 -41 -27.5 -67.5 t-64.5 -26.5q-35 0 -59.5 22.5t-24.5 55.5zM795 1370q0 43 26.5 70.5t65.5 27.5q35 0 59.5 -22.5t24.5 -59.5q0 -41 -27.5 -67.5t-66.5 -26.5q-35 0 -58.5 22.5t-23.5 55.5z" />
<glyph unicode="&#x4f2;" horiz-adv-x="1394" d="M74 14l55 119q68 -27 123 -27q150 0 272 160l62 74l-363 1094h158l307 -967l705 967h155l-891 -1211q-182 -250 -407 -250q-90 0 -176 41zM651 1550l225 254h168l-258 -254h-135zM987 1550l223 254h168l-260 -254h-131z" />
<glyph unicode="&#x4f3;" horiz-adv-x="1142" d="M-209 -311l78 106q74 -78 190 -78q72 0 129.5 39t118.5 135l76 115l-268 1071h147l223 -917l588 917h150l-787 -1216q-98 -152 -184 -210.5t-205 -58.5q-78 0 -147.5 26t-108.5 71zM438 1245l226 254h168l-258 -254h-136zM774 1245l223 254h168l-260 -254h-131z" />
<glyph unicode="&#x4f4;" horiz-adv-x="1495" d="M195 854q0 55 12 113l92 467h150l-93 -463q-10 -51 -10 -88q0 -125 85 -190.5t245 -65.5q219 0 469 106l139 701h148l-287 -1434h-148l119 590q-250 -96 -461 -96q-221 0 -340.5 94t-119.5 266zM648 1675q0 43 27.5 71t64.5 28t60.5 -22.5t23.5 -59.5q0 -41 -28 -68 t-64 -27q-35 0 -59.5 22.5t-24.5 55.5zM1014 1675q0 43 26.5 71t65.5 28q35 0 59.5 -22.5t24.5 -59.5q0 -41 -27.5 -68t-66.5 -27q-35 0 -58.5 22.5t-23.5 55.5z" />
<glyph unicode="&#x4f5;" horiz-adv-x="1224" d="M121 637q0 35 10 90l70 350h145l-70 -352q-6 -31 -6 -59q0 -90 63.5 -135.5t178.5 -45.5q164 0 369 86l100 506h145l-215 -1077h-145l88 444q-197 -78 -373 -77q-170 0 -265 68.5t-95 201.5zM446 1370q0 43 27.5 70.5t64.5 27.5t60.5 -22.5t23.5 -59.5q0 -41 -27.5 -67.5 t-64.5 -26.5q-35 0 -59.5 22.5t-24.5 55.5zM813 1370q0 43 26.5 70.5t65.5 27.5q35 0 59.5 -22.5t24.5 -59.5q0 -41 -27.5 -67.5t-66.5 -26.5q-35 0 -58.5 22.5t-23.5 55.5z" />
<glyph unicode="&#x4f6;" d="M135 0l28 131h371l-90 -453h-141l63 322h-231zM135 0l287 1434h911l-28 -131h-764l-258 -1303h-148z" />
<glyph unicode="&#x4f7;" horiz-adv-x="972" d="M98 0l27 127h317l-73 -363h-137l47 236h-181zM98 0l215 1077h764l-26 -129h-621l-186 -948h-146z" />
<glyph unicode="&#x4f8;" horiz-adv-x="2035" d="M135 0l287 1434h147l-102 -512h440q457 0 457 -379q0 -164 -80 -287t-228.5 -189.5t-348.5 -66.5h-572zM307 121h414q225 0 356 109.5t131 297.5q0 141 -80.5 206t-257.5 65h-428zM920 1675q0 43 27.5 71t64.5 28t60.5 -22.5t23.5 -59.5q0 -41 -28 -68t-64 -27 q-35 0 -59.5 22.5t-24.5 55.5zM1286 1675q0 43 26.5 71t65.5 28q35 0 59.5 -22.5t24.5 -59.5q0 -41 -27.5 -68t-66.5 -27q-35 0 -58.5 22.5t-23.5 55.5zM1542 0l287 1434h149l-287 -1434h-149z" />
<glyph unicode="&#x4f9;" horiz-adv-x="1605" d="M98 0l215 1073h146l-74 -375h295q362 1 362 -288q0 -123 -62 -216.5t-176 -143.5t-263 -50h-443zM268 111h273q159 0 257.5 78.5t98.5 207.5q0 96 -64.5 144.5t-195.5 48.5h-275zM700 1370q0 43 27.5 70.5t64.5 27.5t60.5 -22.5t23.5 -59.5q0 -41 -27.5 -67.5 t-64.5 -26.5q-35 0 -59.5 22.5t-24.5 55.5zM1067 1370q0 43 26.5 70.5t65.5 27.5q35 0 59.5 -22.5t24.5 -59.5q0 -41 -27.5 -67.5t-66.5 -26.5q-35 0 -58.5 22.5t-23.5 55.5zM1147 0l215 1077h145l-215 -1077h-145z" />
<glyph unicode="&#x4fa;" horiz-adv-x="1247" d="M-61 -336l71 107q55 -53 152 -54q84 0 143.5 51.5t79.5 149.5l16 82h-217l121 608h-219l23 115h221l141 711h911l-26 -131h-764l-115 -580h617l-21 -115h-618l-95 -477h215l-47 -233q-29 -141 -130 -223.5t-238 -82.5q-135 0 -221 72z" />
<glyph unicode="&#x4fb;" horiz-adv-x="978" d="M-150 -336l70 107q55 -55 154 -56q88 0 145 52.5t78 154.5l16 78h-174l92 455h-168l23 106h166l104 516h680l-26 -129h-537l-78 -387h455l-23 -106h-452l-66 -328h174l-45 -221q-29 -143 -127 -228.5t-245 -85.5q-68 0 -125.5 18.5t-90.5 53.5z" />
<glyph unicode="&#x4fc;" horiz-adv-x="1339" d="M-63 0l702 745l-381 689h160l319 -584l549 584h172l-649 -695q150 -256 221.5 -394t99 -224t27.5 -164q0 -104 -49 -188t-136 -131.5t-196 -47.5q-115 0 -217 60l64 108q70 -45 151 -45q98 0 159.5 65.5t61.5 170.5q0 98 -61.5 235.5t-235.5 436.5l-581 -621h-180z" />
<glyph unicode="&#x4fd;" horiz-adv-x="1075" d="M-76 0l543 557l-299 520h154l241 -424l406 424h168l-514 -532q160 -254 223 -392.5t63 -234.5q0 -94 -46 -169t-129 -117t-187 -42q-129 0 -232 64l62 110q72 -47 155 -47q100 0 165 59.5t65 149.5q0 78 -53.5 197t-180.5 323l-432 -446h-172z" />
<glyph unicode="&#x4fe;" horiz-adv-x="1368" d="M-43 0l621 676h-349l25 117h352l-321 641h170l293 -568l522 568h178l-582 -641h336l-22 -117h-324l342 -676h-174l-319 616l-568 -616h-180z" />
<glyph unicode="&#x4ff;" horiz-adv-x="1132" d="M-53 0l479 492h-246l23 106h264l-277 479h154l242 -424l407 424h166l-463 -479h265l-23 -106h-260l285 -492h-156l-254 451l-432 -451h-174z" />
<glyph unicode="&#x2000;" horiz-adv-x="902" />
<glyph unicode="&#x2001;" horiz-adv-x="1804" />
<glyph unicode="&#x2002;" horiz-adv-x="902" />
<glyph unicode="&#x2003;" horiz-adv-x="1804" />
<glyph unicode="&#x2004;" horiz-adv-x="601" />
<glyph unicode="&#x2005;" horiz-adv-x="451" />
<glyph unicode="&#x2006;" horiz-adv-x="300" />
<glyph unicode="&#x2007;" horiz-adv-x="300" />
<glyph unicode="&#x2008;" horiz-adv-x="225" />
<glyph unicode="&#x2009;" horiz-adv-x="360" />
<glyph unicode="&#x200a;" horiz-adv-x="100" />
<glyph unicode="&#x2010;" horiz-adv-x="782" d="M115 492l24 126h537l-25 -126h-536z" />
<glyph unicode="&#x2011;" horiz-adv-x="782" d="M115 492l24 126h537l-25 -126h-536z" />
<glyph unicode="&#x2012;" horiz-adv-x="782" d="M115 492l24 126h537l-25 -126h-536z" />
<glyph unicode="&#x2013;" horiz-adv-x="1024" d="M-6 504l20 104h1024l-20 -104h-1024z" />
<glyph unicode="&#x2014;" horiz-adv-x="2048" d="M-6 504l20 104h2048l-20 -104h-2048z" />
<glyph unicode="&#x2018;" horiz-adv-x="434" d="M223 1114q0 27 8.5 49.5t28.5 59.5l158 297h98l-131 -299q27 -13 42 -38.5t15 -56.5q0 -49 -33.5 -82.5t-80.5 -33.5q-45 0 -75 29.5t-30 74.5z" />
<glyph unicode="&#x2019;" horiz-adv-x="434" d="M211 1020l129 299q-27 12 -42 37.5t-15 56.5q0 49 33.5 83t80.5 34q45 0 75 -31t30 -76q0 -27 -8.5 -49t-28.5 -59l-156 -295h-98z" />
<glyph unicode="&#x201a;" horiz-adv-x="434" d="M-53 -299l131 301q-27 12 -42.5 38t-15.5 56q0 49 34 83t81 34q45 0 75 -30.5t30 -76.5q0 -27 -9.5 -49t-29.5 -59l-156 -297h-98z" />
<glyph unicode="&#x201c;" horiz-adv-x="782" d="M223 1114q0 27 8.5 49.5t28.5 59.5l158 297h98l-131 -299q27 -13 42 -38.5t15 -56.5q0 -49 -33.5 -82.5t-80.5 -33.5q-45 0 -75 29.5t-30 74.5zM571 1114q0 27 8.5 49.5t28.5 59.5l158 297h98l-131 -299q27 -13 42 -38.5t15 -56.5q0 -49 -33.5 -82.5t-80.5 -33.5 q-45 0 -75 29.5t-30 74.5z" />
<glyph unicode="&#x201d;" horiz-adv-x="782" d="M211 1020l129 299q-27 12 -42 37.5t-15 56.5q0 49 33.5 83t80.5 34q45 0 75 -31t30 -76q0 -27 -8.5 -49t-28.5 -59l-156 -295h-98zM559 1020l129 299q-27 12 -42 37.5t-15 56.5q0 49 33.5 83t80.5 34q45 0 75 -31t30 -76q0 -27 -8.5 -49t-28.5 -59l-156 -295h-98z" />
<glyph unicode="&#x201e;" horiz-adv-x="782" d="M-53 -299l131 301q-27 12 -42.5 38t-15.5 56q0 49 34 83t81 34q45 0 75 -30.5t30 -76.5q0 -27 -9.5 -49t-29.5 -59l-156 -297h-98zM295 -299l131 301q-27 12 -42.5 38t-15.5 56q0 49 34 83t81 34q45 0 75 -30.5t30 -76.5q0 -27 -9.5 -49t-29.5 -59l-156 -297h-98z" />
<glyph unicode="&#x2022;" horiz-adv-x="604" d="M154 549q0 70 47 118t114 48q59 0 102.5 -42t43.5 -104q0 -70 -48 -118t-116 -48q-59 0 -101 42t-42 104z" />
<glyph unicode="&#x2026;" horiz-adv-x="1325" d="M20 96q0 49 34 83t81 34q45 0 75 -30.5t30 -76.5q0 -49 -34 -82.5t-79 -33.5t-76 30.5t-31 75.5zM464 96q0 49 34 83t81 34q45 0 75 -30.5t30 -76.5q0 -49 -34 -82.5t-79 -33.5t-76 30.5t-31 75.5zM911 96q0 49 34 83t81 34q45 0 75 -30.5t30 -76.5q0 -49 -34 -82.5 t-79 -33.5t-76 30.5t-31 75.5z" />
<glyph unicode="&#x202f;" horiz-adv-x="360" />
<glyph unicode="&#x2039;" horiz-adv-x="612" d="M102 539l373 389h141l-368 -393l207 -383h-133z" />
<glyph unicode="&#x203a;" horiz-adv-x="614" d="M-4 152l371 393l-207 383h133l219 -389l-375 -387h-141z" />
<glyph unicode="&#x205f;" horiz-adv-x="451" />
<glyph unicode="&#x20ac;" horiz-adv-x="1644" d="M59 530l19 91h223q6 111 29 192h-213l18 90h221q90 244 306.5 393.5t513.5 149.5q172 0 305 -54.5t205 -154.5l-107 -94q-137 168 -416 168q-227 0 -396 -110.5t-251 -297.5h717l-19 -90h-731q-29 -92 -30 -192h723l-19 -91h-702q20 -188 156.5 -297.5t371.5 -109.5 q283 0 457 170l88 -100q-96 -98 -240.5 -151.5t-314.5 -53.5q-199 0 -346.5 67.5t-229.5 189.5t-94 285h-244z" />
<glyph unicode="&#x2122;" horiz-adv-x="2091" d="M168 1341l18 93h752l-18 -93h-320l-151 -757h-113l151 757h-319zM899 584l170 850h90l273 -615l507 615h97l-170 -850h-109l129 643l-448 -539h-56l-245 553l-131 -657h-107z" />
<glyph unicode="&#x25fc;" horiz-adv-x="1075" d="M0 0v1075h1075v-1075h-1075z" />
</font>
</defs>
</svg>
